<?xml version="1.0" encoding="utf-8"?>
<!-- Generator: Adobe Illustrator 25.0.1, SVG Export Plug-In . SVG Version: 6.00 Build 0)  -->
<svg version="1.1" id="Camada_1" xmlns="http://www.w3.org/2000/svg" xmlns:xlink="http://www.w3.org/1999/xlink" x="0px" y="0px"
	 viewBox="0 0 226 42" style="enable-background:new 0 0 226 42;" xml:space="preserve">
<style type="text/css">
	.st0{fill:#FFFFFF;}
</style>
<g>
	<path class="st0" d="M106.4,40.6c0-5,0-9.9,0-14.9c0-0.1,0-0.1,0-0.2c0,0,0,0,0,0c0.7,0.9,1.4,1.9,2.1,2.9c0-0.1,0.1-0.1,0.1-0.2
		c0.6-0.9,1.6-1.3,2.6-1.5c0.9-0.1,1.7-0.1,2.6,0.2c0.8,0.3,1.5,0.8,1.9,1.6c0.5,0.9,0.7,1.9,0.7,2.9c0,0.9,0,1.7-0.3,2.5
		c-0.3,0.9-0.7,1.7-1.5,2.2c-0.5,0.3-1,0.5-1.6,0.6c-0.9,0.1-1.7,0-2.5-0.3c-0.3-0.1-0.7-0.3-0.9-0.6c0,0-0.1-0.1-0.1-0.1
		c0,1.6,0,3.2,0,4.7C108.4,40.6,107.4,40.6,106.4,40.6z M113.3,31.9c0-0.4,0-0.8-0.1-1.1c-0.1-0.6-0.4-1.2-1-1.4
		c-0.3-0.1-0.7-0.1-1-0.1c-0.8,0-1.4,0.4-1.6,1.2c-0.2,0.6-0.2,1.2-0.1,1.8c0,0.4,0.1,0.7,0.2,1.1c0.1,0.5,0.4,0.8,0.9,0.9
		c0.5,0.1,0.9,0.2,1.4,0.1c0.6-0.1,1-0.5,1.2-1C113.3,32.9,113.3,32.4,113.3,31.9z"/>
	<path class="st0" d="M65.4,29.3c0.1-0.2,0.1-0.5,0.2-0.7c0.4-0.8,1.1-1.3,1.9-1.6c0.6-0.2,1.3-0.3,1.9-0.3c0.8-0.1,1.6,0,2.4,0.2
		c0.6,0.1,1.2,0.3,1.7,0.7c0.6,0.5,0.8,1.1,0.9,1.8c0,0.2,0,0.4,0,0.6c0,0.1,0,0.2-0.2,0.2c-0.8,0-1.7,0-2.5,0c-0.1,0-0.2,0-0.2-0.2
		c-0.1-0.8-0.6-1.2-1.4-1.2c-0.4,0-0.9,0-1.3,0.1c-0.2,0.1-0.4,0.2-0.4,0.4c-0.1,0.3-0.1,0.6,0.3,0.8c0.4,0.2,0.8,0.3,1.2,0.4
		c0.9,0.2,1.8,0.3,2.7,0.6c0.5,0.2,0.9,0.4,1.3,0.7c0.6,0.5,0.8,1.1,0.8,1.9c0,0.9-0.4,1.5-1,2.1c-0.5,0.4-1.2,0.7-1.8,0.8
		c-1.4,0.3-2.7,0.3-4.1-0.2c-1.2-0.4-1.9-1.2-2.2-2.4c-0.1-0.4-0.1-0.9-0.2-1.3c0-0.1,0-0.1,0-0.2c0.2,0.1,0.5,0.1,0.7,0.2
		c0.7,0.2,1.5,0.4,2.2,0.6c0.2,0,0.2,0.1,0.2,0.3c0,0.1,0,0.2,0,0.3c0,0.3,0.2,0.5,0.5,0.6c0.7,0.2,1.4,0.2,2.2-0.1
		c0.3-0.1,0.4-0.3,0.5-0.5c0.1-0.2,0-0.5-0.2-0.6C71.3,33.2,71,33,70.7,33c-0.8-0.2-1.6-0.3-2.4-0.5c-0.5-0.1-0.9-0.2-1.3-0.4
		c-0.8-0.3-1.4-0.9-1.6-1.8C65.4,29.9,65.4,29.6,65.4,29.3z"/>
	<path class="st0" d="M116.3,6.5c-3.4,0-6.9,0-10.3,0c-1.7,0-3.1,0.8-4,2.3c-0.3,0.5-0.5,1.1-0.5,1.8c0,2.1,0,4.1,0,6.2
		c0,0.3,0,0.3-0.3,0.3c-0.4,0-0.8,0-1.2,0c-0.1,0-0.2,0-0.2-0.2c0-2.2,0-4.3,0-6.5c0-1.2,0.5-2.2,1.2-3.1c1.1-1.3,2.5-2.1,4.3-2.3
		c0.2,0,0.4,0,0.6,0c4.1,0,8.2,0,12.3,0c0.3,0,0.3,0,0.3-0.3c0-0.6,0-1.3,0-1.9c0-0.8,0.7-1.4,1.4-1.4c2.1,0,4.2,0,6.4,0
		c0.7,0,1.4,0.6,1.4,1.4c0,0.7,0,1.4,0,2.1c0,0.2,0,0.2,0.2,0.3c1.1,0.2,2.1,0.7,2.9,1.5c1,0.9,1.6,2,1.8,3.3c0,0.2,0,0.4,0,0.6
		c0,2.1,0,4.2,0,6.3c0,0.3,0,0.3-0.3,0.3c-0.4,0-0.8,0-1.2,0c-0.3,0-0.3,0-0.3-0.3c0-1.8,0-3.6,0-5.4c0-0.4,0-0.9,0-1.3
		c-0.1-0.8-0.5-1.5-1-2.1c-0.8-0.9-1.8-1.4-3-1.5c-0.1,0-0.2,0-0.4,0C123.2,6.5,119.8,6.5,116.3,6.5z M123.2,5c1,0,2,0,3.1,0
		c0.2,0,0.2,0,0.2-0.2c0-0.6,0-1.2,0-1.9c0-0.2,0-0.2-0.2-0.2c-2,0-4.1,0-6.1,0c-0.2,0-0.2,0-0.2,0.2c0,0.6,0,1.2,0,1.8
		c0,0.3,0,0.3,0.3,0.3C121.2,5,122.2,5,123.2,5z"/>
	<path class="st0" d="M78.4,27.9c0.6-0.6,1.2-0.9,2-1c0.9-0.1,1.8,0,2.6,0.3c0.9,0.4,1.4,1.1,1.6,1.9c0.1,0.5,0.2,1,0.2,1.5
		c0,2,0,4,0,6c0,0.2,0,0.2-0.2,0.2c-0.9,0-1.8,0-2.6,0c-0.2,0-0.2,0-0.2-0.2c0-1.9,0-3.8,0-5.6c0-0.2,0-0.4-0.1-0.7
		c-0.1-0.6-0.4-0.8-1.1-0.9c-0.4,0-0.7,0-1.1,0c-0.6,0.1-1,0.6-1,1.3c0,0.6,0,1.2,0,1.8c0,1.4,0,2.7,0,4.1c0,0.2,0,0.2-0.2,0.2
		c-0.9,0-1.7,0-2.6,0c-0.2,0-0.2,0-0.2-0.2c0-4.4,0-8.8,0-13.1c0-0.2,0-0.2,0.2-0.2c0.9,0,1.7,0,2.6,0c0.2,0,0.2,0,0.2,0.2
		c0,1.4,0,2.8,0,4.3C78.4,27.8,78.4,27.8,78.4,27.9z"/>
	<path class="st0" d="M120,27.9c0.3-0.2,0.5-0.4,0.8-0.6c0.4-0.3,0.8-0.4,1.3-0.4c0.8-0.1,1.7,0,2.4,0.2c0.9,0.3,1.4,0.9,1.7,1.8
		c0.2,0.6,0.3,1.1,0.3,1.7c0,2,0,4,0,6c0,0.3,0,0.3-0.3,0.3c-0.9,0-1.7,0-2.6,0c-0.2,0-0.2,0-0.2-0.2c0-1.9,0-3.7,0-5.6
		c0-0.2,0-0.4,0-0.5c-0.1-0.7-0.5-1-1.2-1.1c-0.3,0-0.7,0-1,0c-0.7,0.1-1.1,0.6-1.1,1.3c0,0.9,0,1.8,0,2.8c0,1,0,2.1,0,3.1
		c0,0.2,0,0.2-0.2,0.2c-0.9,0-1.7,0-2.6,0c-0.2,0-0.2,0-0.2-0.2c0-4.4,0-8.8,0-13.2c0-0.2,0.1-0.2,0.2-0.2c0.9,0,1.7,0,2.6,0
		c0.2,0,0.2,0.1,0.2,0.2c0,1.4,0,2.8,0,4.3C120,27.8,120,27.8,120,27.9z"/>
	<path class="st0" d="M91.9,32.8c-1,0-2.1,0-3.1,0c-0.2,0-0.3,0-0.2,0.2c0.1,0.6,0.2,1.2,0.8,1.5c0.3,0.2,0.7,0.2,1,0.2
		c0.4,0,0.8,0,1.2-0.2c0.2-0.1,0.4-0.3,0.5-0.6c0-0.1,0.1-0.2,0.2-0.2c0.9,0,1.9,0,2.8,0c0.2,0,0.2,0,0.2,0.2
		c-0.2,1-0.8,1.8-1.7,2.3c-0.8,0.4-1.6,0.6-2.4,0.6c-0.9,0.1-1.7,0-2.6-0.2c-1.6-0.4-2.6-1.4-3-2.9c-0.4-1.4-0.4-2.8,0.1-4.2
		c0.5-1.3,1.4-2.1,2.7-2.5c0.7-0.2,1.5-0.3,2.2-0.3c0.8,0,1.5,0.1,2.2,0.5c0.9,0.4,1.5,1,1.9,1.9c0.5,1.1,0.6,2.3,0.5,3.5
		c0,0.2-0.1,0.2-0.2,0.2C94,32.8,93,32.8,91.9,32.8z M90.3,30.8c0.5,0,1.1,0,1.6,0c0.1,0,0.2,0,0.2-0.2c0-0.6-0.3-1.3-1-1.5
		c-0.5-0.2-1-0.2-1.5,0c-0.4,0.1-0.7,0.3-0.9,0.7c-0.1,0.2-0.1,0.4-0.2,0.7c0,0.3,0,0.3,0.2,0.3C89.3,30.8,89.8,30.8,90.3,30.8z"/>
	<path class="st0" d="M163.9,32.8c-1,0-2.1,0-3.1,0c-0.2,0-0.3,0-0.2,0.2c0.1,0.6,0.2,1.2,0.8,1.5c0.3,0.2,0.7,0.2,1,0.2
		c0.4,0,0.8,0,1.2-0.2c0.2-0.1,0.4-0.3,0.5-0.6c0-0.1,0.1-0.2,0.2-0.2c0.9,0,1.9,0,2.8,0c0.2,0,0.2,0,0.2,0.2
		c-0.2,1-0.8,1.8-1.7,2.3c-0.8,0.4-1.6,0.6-2.4,0.6c-0.9,0.1-1.7,0-2.6-0.2c-1.6-0.4-2.6-1.4-3-2.9c-0.4-1.4-0.4-2.8,0.1-4.2
		c0.4-1.3,1.4-2.1,2.7-2.5c0.7-0.2,1.5-0.3,2.2-0.3c0.8,0,1.5,0.1,2.2,0.5c0.9,0.4,1.5,1,1.9,1.9c0.5,1.1,0.6,2.3,0.5,3.5
		c0,0.2-0.1,0.2-0.2,0.2C166,32.8,164.9,32.8,163.9,32.8z M162.3,30.8c0.5,0,1.1,0,1.6,0c0.1,0,0.2,0,0.2-0.1c0-0.5-0.2-1-0.6-1.4
		c-0.4-0.3-0.9-0.3-1.4-0.3c-0.6,0.1-1.2,0.3-1.4,0.9c-0.1,0.2-0.1,0.4-0.1,0.6c0,0.3,0,0.3,0.2,0.3
		C161.3,30.8,161.8,30.8,162.3,30.8z"/>
	<path class="st0" d="M102.4,32.8c-1.1,0-2.1,0-3.2,0c-0.2,0-0.2,0-0.2,0.2c0.1,0.3,0.1,0.5,0.2,0.8c0.2,0.6,0.7,0.9,1.3,1
		c0.5,0.1,1,0.1,1.5-0.2c0.3-0.1,0.5-0.3,0.6-0.6c0-0.1,0.1-0.2,0.3-0.2c0.9,0,1.9,0,2.8,0c0.2,0,0.2,0,0.2,0.2
		c-0.2,1.2-0.9,2-2,2.5c-0.7,0.3-1.4,0.4-2.1,0.5c-1.1,0.1-2.1,0-3.1-0.4c-1.1-0.4-1.8-1.1-2.3-2.1c-0.3-0.7-0.4-1.5-0.5-2.3
		c0-0.8,0-1.6,0.3-2.3c0.4-1.4,1.4-2.4,2.8-2.8c1.3-0.4,2.6-0.4,3.9,0c1.3,0.4,2.1,1.2,2.6,2.4c0.3,0.7,0.4,1.4,0.4,2.1
		c0,0.3,0,0.6,0,0.9c0,0.3,0,0.3-0.3,0.3C104.5,32.8,103.4,32.8,102.4,32.8z M100.8,30.8c0.5,0,0.9,0,1.4,0c0.5,0,0.5,0,0.4-0.5
		c-0.1-0.5-0.3-0.9-0.8-1.1c-0.4-0.2-0.8-0.2-1.2-0.2c-0.9,0-1.5,0.6-1.6,1.5c0,0.2,0,0.3,0.2,0.3C99.8,30.8,100.3,30.8,100.8,30.8z
		"/>
	<path class="st0" d="M146.9,37.2c-0.7-0.6-1.4-1.1-2.1-1.7c0,0,0,0.1-0.1,0.1c-0.5,0.6-1.1,0.9-1.8,1.1c-1.1,0.3-2.1,0.3-3.2,0
		c-1.2-0.3-1.9-1.1-2.2-2.3c-0.1-0.6-0.2-1.1-0.2-1.7c0-1.8,0-3.7,0-5.5c0-0.3,0-0.3,0.3-0.3c0.9,0,1.7,0,2.6,0c0.2,0,0.2,0,0.2,0.2
		c0,1.9,0,3.7,0,5.6c0,0.2,0,0.4,0.1,0.7c0.1,0.6,0.4,0.9,1.1,1c0.3,0,0.7,0,1,0c0.7-0.1,1.1-0.5,1.1-1.2c0-0.3,0-0.5,0-0.8
		c0-1.7,0-3.5,0-5.2c0-0.3,0-0.3,0.3-0.3c0.9,0,1.7,0,2.6,0c0.2,0,0.2,0,0.2,0.2c0,3.2,0,6.5,0,9.7C146.9,37,146.9,37.1,146.9,37.2z
		"/>
	<path class="st0" d="M155.1,30.6c-0.4,0-0.8,0-1.2,0c-0.1,0-0.2,0-0.2-0.2c0-0.9-0.6-1.2-1.2-1.2c-0.4,0-0.9-0.1-1.3,0.1
		c-0.4,0.1-0.6,0.4-0.6,0.8c0,0.2,0.1,0.3,0.2,0.4c0.3,0.1,0.6,0.3,0.9,0.3c0.8,0.2,1.7,0.4,2.5,0.5c0.5,0.1,1.1,0.3,1.5,0.6
		c1.2,0.7,1.4,2,1,3.1c-0.3,0.6-0.7,1.1-1.3,1.5c-0.8,0.4-1.6,0.6-2.4,0.7c-0.9,0.1-1.8,0-2.7-0.2c-1-0.3-1.8-0.8-2.3-1.7
		c-0.3-0.5-0.4-1.1-0.4-1.6c0-0.2,0-0.4,0-0.5c0-0.1,0-0.2,0.2-0.1c0.9,0.3,1.9,0.5,2.8,0.8c0.1,0,0.1,0.1,0.1,0.2
		c0,0.1,0,0.3,0,0.4c0,0.2,0.1,0.4,0.4,0.5c0.8,0.2,1.6,0.2,2.3-0.1c0.2-0.1,0.3-0.2,0.4-0.4c0.1-0.3,0.1-0.5-0.2-0.7
		c-0.3-0.2-0.7-0.3-1.1-0.4c-0.8-0.2-1.6-0.3-2.4-0.5c-0.5-0.1-1-0.3-1.4-0.6c-0.9-0.5-1.3-1.2-1.2-2.2c0.1-0.8,0.4-1.5,1-2
		c0.6-0.5,1.3-0.7,2-0.8c0.6-0.1,1.2-0.1,1.8-0.1c0.8,0,1.6,0.1,2.4,0.4c1.1,0.4,1.7,1.2,1.8,2.3c0,0.2,0.1,0.5,0.1,0.7
		c0,0.2,0,0.2-0.2,0.2C155.9,30.6,155.5,30.6,155.1,30.6z"/>
	<path class="st0" d="M127.1,31.9c0-0.8,0.1-1.6,0.4-2.4c0.5-1.3,1.5-2.1,2.9-2.5c1.3-0.3,2.5-0.3,3.7,0.1c1.2,0.4,2,1.2,2.4,2.4
		c0.3,0.9,0.4,1.9,0.3,2.8c0,0.6-0.2,1.2-0.4,1.8c-0.5,1.3-1.4,2-2.8,2.4c-1.2,0.3-2.4,0.3-3.6-0.1c-1.3-0.4-2.1-1.2-2.6-2.4
		C127.2,33.4,127.1,32.6,127.1,31.9z M134,31.9c-0.1-0.4-0.1-0.9-0.2-1.3c-0.2-0.6-0.6-1-1.2-1.1c-0.3-0.1-0.6-0.1-0.9-0.1
		c-0.8,0-1.3,0.4-1.5,1.2c-0.1,0.3-0.1,0.5-0.2,0.8c-0.1,0.6,0,1.2,0.1,1.8c0.2,0.6,0.5,1,1.1,1.1c0.4,0.1,0.8,0.1,1.2,0
		c0.6-0.1,1.1-0.5,1.3-1.1C133.9,32.7,133.9,32.3,134,31.9z"/>
	<path class="st0" d="M109.2,17.6c0,0-0.1-0.1-0.1-0.1c-0.3-0.3-0.6-0.6-0.9-0.9c-0.1-0.1-0.1-0.1,0-0.2c0,0,0,0,0.1-0.1
		c2.8-2.7,5.5-5.4,8.3-8.2c0.2-0.2,0.2-0.2,0.4,0c2.7,2.6,5.3,5.2,8,7.9c0.2,0.2,0.2,0.2,0,0.4c-0.3,0.3-0.5,0.5-0.8,0.8
		c-0.1,0.1-0.2,0.1-0.3,0c-2.3-2.3-4.6-4.5-6.9-6.8c-0.2-0.2-0.2-0.2-0.4,0c-2.4,2.3-4.8,4.7-7.1,7
		C109.3,17.5,109.2,17.5,109.2,17.6z"/>
	<path class="st0" d="M126.7,11.8c-0.5,0-1.1,0-1.6,0c-0.8,0-1.3-0.4-1.4-1.3c0-0.4,0-0.8,0-1.1c0.1-0.6,0.6-1,1.2-1
		c1.2,0,2.4,0,3.5,0c0.6,0,1.1,0.4,1.2,1c0.1,0.4,0.1,0.9,0,1.4c-0.1,0.7-0.6,1.1-1.3,1.1C127.8,11.8,127.2,11.8,126.7,11.8z
		 M126.7,10.8c0.5,0,1.1,0,1.6,0c0.3,0,0.4-0.1,0.4-0.4c0-0.2,0-0.5,0-0.7c0-0.3-0.1-0.4-0.4-0.4c-1.1,0-2.2,0-3.3,0
		c-0.3,0-0.4,0.1-0.4,0.4c0,0.2,0,0.5,0,0.7c0,0.3,0.1,0.4,0.4,0.4C125.6,10.8,126.1,10.8,126.7,10.8z"/>
	<path class="st0" d="M108,10c0,0.7-0.4,1.2-1,1.4c-0.8,0.4-1.8,0.1-2.3-0.6c-0.5-0.7-0.3-1.6,0.4-2.1c0.7-0.5,1.8-0.5,2.4,0.2
		C107.8,9.2,108,9.6,108,10z"/>
</g>
</svg>
