<?xml version="1.0" encoding="utf-8"?>
<!-- Generator: Adobe Illustrator 25.0.1, SVG Export Plug-In . SVG Version: 6.00 Build 0)  -->
<svg version="1.1" id="Camada_1" xmlns="http://www.w3.org/2000/svg" xmlns:xlink="http://www.w3.org/1999/xlink" x="0px" y="0px"
	 viewBox="0 0 56 40" style="enable-background:new 0 0 56 40;" xml:space="preserve">
<style type="text/css">
	.st0{fill:#1B1464;}
</style>
<g>
	<path class="st0" d="M22.7,29.9c0-2.6,0-5.3,0-7.9c0,0,0-0.1,0-0.1c0,0,0,0,0,0c0.4,0.5,0.7,1,1.1,1.5c0,0,0-0.1,0.1-0.1
		c0.3-0.5,0.8-0.7,1.4-0.8c0.5-0.1,0.9,0,1.4,0.1c0.4,0.2,0.8,0.5,1,0.9c0.3,0.5,0.4,1,0.4,1.6c0,0.5,0,0.9-0.1,1.3
		c-0.1,0.5-0.4,0.9-0.8,1.2c-0.3,0.2-0.5,0.3-0.8,0.3c-0.5,0.1-0.9,0-1.4-0.2c-0.2-0.1-0.4-0.2-0.5-0.3c0,0,0,0-0.1-0.1
		c0,0.9,0,1.7,0,2.5C23.8,29.9,23.3,29.9,22.7,29.9z M26.4,25.2c0-0.2,0-0.4-0.1-0.6c-0.1-0.3-0.2-0.6-0.6-0.7
		c-0.2,0-0.3-0.1-0.5-0.1c-0.4,0-0.7,0.2-0.9,0.7c-0.1,0.3-0.1,0.6-0.1,1c0,0.2,0,0.4,0.1,0.6c0.1,0.2,0.2,0.4,0.5,0.5
		c0.2,0.1,0.5,0.1,0.8,0c0.3-0.1,0.5-0.2,0.6-0.5C26.4,25.7,26.4,25.5,26.4,25.2z"/>
	<path class="st0" d="M0.9,23.8c0-0.1,0.1-0.3,0.1-0.4c0.2-0.4,0.6-0.7,1-0.9c0.3-0.1,0.7-0.2,1-0.2c0.4,0,0.9,0,1.3,0.1
		c0.3,0.1,0.6,0.2,0.9,0.4c0.3,0.3,0.4,0.6,0.5,1c0,0.1,0,0.2,0,0.3c0,0.1,0,0.1-0.1,0.1c-0.4,0-0.9,0-1.3,0c-0.1,0-0.1,0-0.1-0.1
		c0-0.5-0.3-0.6-0.7-0.7c-0.2,0-0.5,0-0.7,0.1c-0.1,0-0.2,0.1-0.2,0.2c-0.1,0.2,0,0.3,0.1,0.4c0.2,0.1,0.4,0.2,0.6,0.2
		c0.5,0.1,1,0.2,1.5,0.3C5,24.9,5.2,25,5.5,25.2c0.3,0.3,0.4,0.6,0.4,1c0,0.5-0.2,0.8-0.5,1.1c-0.3,0.2-0.6,0.4-1,0.5
		c-0.7,0.2-1.5,0.1-2.2-0.1c-0.6-0.2-1-0.7-1.2-1.3c-0.1-0.2-0.1-0.5-0.1-0.7c0,0,0-0.1,0-0.1c0.1,0,0.2,0.1,0.4,0.1
		C1.7,25.7,2,25.9,2.4,26c0.1,0,0.1,0.1,0.1,0.2c0,0,0,0.1,0,0.1c0,0.2,0.1,0.3,0.3,0.3c0.4,0.1,0.8,0.1,1.1,0
		c0.1,0,0.2-0.1,0.3-0.3c0-0.1,0-0.3-0.1-0.3c-0.1-0.1-0.3-0.1-0.4-0.2c-0.4-0.1-0.9-0.2-1.3-0.3c-0.2-0.1-0.5-0.1-0.7-0.2
		c-0.4-0.2-0.8-0.5-0.9-0.9C0.9,24.2,0.9,24,0.9,23.8z"/>
	<path class="st0" d="M28,11.6c-1.8,0-3.7,0-5.5,0c-0.9,0-1.6,0.4-2.1,1.2c-0.2,0.3-0.2,0.6-0.2,0.9c0,1.1,0,2.2,0,3.3
		c0,0.1,0,0.1-0.1,0.1c-0.2,0-0.4,0-0.6,0c-0.1,0-0.1,0-0.1-0.1c0-1.2,0-2.3,0-3.5c0-0.6,0.2-1.2,0.6-1.6c0.6-0.7,1.4-1.1,2.3-1.2
		c0.1,0,0.2,0,0.3,0c2.2,0,4.4,0,6.5,0c0.2,0,0.2,0,0.2-0.2c0-0.3,0-0.7,0-1c0-0.4,0.4-0.7,0.8-0.7c1.1,0,2.3,0,3.4,0
		c0.3,0,0.8,0.3,0.7,0.7c0,0.4,0,0.8,0,1.1c0,0.1,0,0.1,0.1,0.1c0.6,0.1,1.1,0.4,1.6,0.8c0.5,0.5,0.9,1.1,1,1.8c0,0.1,0,0.2,0,0.3
		c0,1.1,0,2.2,0,3.3c0,0.1,0,0.1-0.1,0.1c-0.2,0-0.4,0-0.6,0c-0.1,0-0.1,0-0.1-0.1c0-1,0-1.9,0-2.9c0-0.2,0-0.5,0-0.7
		c-0.1-0.4-0.2-0.8-0.5-1.1c-0.4-0.5-1-0.7-1.6-0.8c-0.1,0-0.1,0-0.2,0C31.7,11.6,29.9,11.6,28,11.6z M31.7,10.8c0.5,0,1.1,0,1.6,0
		c0.1,0,0.1,0,0.1-0.1c0-0.3,0-0.7,0-1c0-0.1,0-0.1-0.1-0.1c-1.1,0-2.2,0-3.3,0c-0.1,0-0.1,0-0.1,0.1c0,0.3,0,0.7,0,1
		c0,0.1,0,0.1,0.1,0.1C30.6,10.8,31.2,10.8,31.7,10.8z"/>
	<path class="st0" d="M7.8,23.1c0.3-0.3,0.7-0.5,1.1-0.5c0.5-0.1,1,0,1.4,0.2c0.5,0.2,0.7,0.6,0.8,1c0.1,0.3,0.1,0.5,0.1,0.8
		c0,1.1,0,2.1,0,3.2c0,0.1,0,0.1-0.1,0.1c-0.5,0-0.9,0-1.4,0c-0.1,0-0.1,0-0.1-0.1c0-1,0-2,0-3c0-0.1,0-0.2,0-0.4
		c-0.1-0.3-0.2-0.4-0.6-0.5c-0.2,0-0.4,0-0.6,0c-0.3,0.1-0.5,0.3-0.6,0.7c0,0.3,0,0.6,0,1c0,0.7,0,1.4,0,2.2c0,0.1,0,0.1-0.1,0.1
		c-0.5,0-0.9,0-1.4,0c-0.1,0-0.1,0-0.1-0.1c0-2.3,0-4.7,0-7c0-0.1,0-0.1,0.1-0.1c0.5,0,0.9,0,1.4,0c0.1,0,0.1,0,0.1,0.1
		c0,0.8,0,1.5,0,2.3C7.8,23,7.8,23,7.8,23.1z"/>
	<path class="st0" d="M30,23.1c0.1-0.1,0.3-0.2,0.4-0.3c0.2-0.1,0.4-0.2,0.7-0.2c0.4-0.1,0.9,0,1.3,0.1c0.5,0.2,0.7,0.5,0.9,0.9
		c0.1,0.3,0.2,0.6,0.2,0.9c0,1.1,0,2.1,0,3.2c0,0.1,0,0.1-0.1,0.1c-0.5,0-0.9,0-1.4,0c-0.1,0-0.1,0-0.1-0.1c0-1,0-2,0-3
		c0-0.1,0-0.2,0-0.3c-0.1-0.4-0.2-0.5-0.6-0.6c-0.2,0-0.4,0-0.5,0c-0.4,0.1-0.6,0.3-0.6,0.7c0,0.5,0,1,0,1.5c0,0.6,0,1.1,0,1.7
		c0,0.1,0,0.1-0.1,0.1c-0.5,0-0.9,0-1.4,0c-0.1,0-0.1,0-0.1-0.1c0-2.3,0-4.7,0-7c0-0.1,0-0.1,0.1-0.1c0.5,0,0.9,0,1.4,0
		c0.1,0,0.1,0,0.1,0.1c0,0.8,0,1.5,0,2.3C30,23,30,23,30,23.1z"/>
	<path class="st0" d="M15,25.7c-0.6,0-1.1,0-1.7,0c-0.1,0-0.1,0-0.1,0.1c0,0.3,0.1,0.6,0.4,0.8c0.2,0.1,0.4,0.1,0.5,0.1
		c0.2,0,0.4,0,0.6-0.1c0.1-0.1,0.2-0.2,0.3-0.3c0-0.1,0.1-0.1,0.1-0.1c0.5,0,1,0,1.5,0c0.1,0,0.1,0,0.1,0.1
		c-0.1,0.6-0.4,0.9-0.9,1.2c-0.4,0.2-0.8,0.3-1.3,0.3c-0.5,0-0.9,0-1.4-0.1c-0.8-0.2-1.4-0.7-1.6-1.6c-0.2-0.8-0.2-1.5,0.1-2.3
		c0.2-0.7,0.7-1.1,1.4-1.3c0.4-0.1,0.8-0.2,1.2-0.1c0.4,0,0.8,0.1,1.2,0.2c0.5,0.2,0.8,0.5,1,1c0.3,0.6,0.3,1.2,0.3,1.9
		c0,0.1-0.1,0.1-0.1,0.1C16.1,25.7,15.6,25.7,15,25.7z M14.2,24.6c0.3,0,0.6,0,0.9,0c0.1,0,0.1,0,0.1-0.1c0-0.3-0.2-0.7-0.5-0.8
		c-0.3-0.1-0.5-0.1-0.8,0c-0.2,0.1-0.4,0.2-0.5,0.4c0,0.1-0.1,0.2-0.1,0.4c0,0.1,0,0.1,0.1,0.1C13.6,24.6,13.9,24.6,14.2,24.6z"/>
	<path class="st0" d="M53.4,25.7c-0.6,0-1.1,0-1.7,0c-0.1,0-0.1,0-0.1,0.1c0,0.3,0.1,0.6,0.4,0.8c0.2,0.1,0.4,0.1,0.5,0.1
		c0.2,0,0.4,0,0.6-0.1c0.1-0.1,0.2-0.2,0.3-0.3c0-0.1,0.1-0.1,0.1-0.1c0.5,0,1,0,1.5,0c0.1,0,0.1,0,0.1,0.1
		c-0.1,0.6-0.4,0.9-0.9,1.2c-0.4,0.2-0.8,0.3-1.3,0.3c-0.5,0-0.9,0-1.4-0.1c-0.8-0.2-1.4-0.7-1.6-1.6c-0.2-0.8-0.2-1.5,0.1-2.3
		c0.2-0.7,0.7-1.1,1.4-1.3c0.4-0.1,0.8-0.2,1.2-0.1c0.4,0,0.8,0.1,1.2,0.2c0.5,0.2,0.8,0.5,1,1c0.3,0.6,0.3,1.2,0.3,1.9
		c0,0.1-0.1,0.1-0.1,0.1C54.5,25.7,54,25.7,53.4,25.7z M52.6,24.6c0.3,0,0.6,0,0.9,0c0,0,0.1,0,0.1-0.1c0-0.3-0.1-0.5-0.3-0.7
		c-0.2-0.2-0.5-0.2-0.7-0.2c-0.3,0-0.6,0.2-0.8,0.5c0,0.1-0.1,0.2-0.1,0.3c0,0.1,0,0.1,0.1,0.1C52,24.6,52.3,24.6,52.6,24.6z"/>
	<path class="st0" d="M20.6,25.7c-0.6,0-1.1,0-1.7,0c-0.1,0-0.1,0-0.1,0.1c0,0.1,0,0.3,0.1,0.4c0.1,0.3,0.4,0.5,0.7,0.5
		c0.3,0,0.5,0,0.8-0.1c0.2-0.1,0.3-0.2,0.3-0.3c0-0.1,0.1-0.1,0.1-0.1c0.5,0,1,0,1.5,0c0.1,0,0.1,0,0.1,0.1
		c-0.1,0.6-0.5,1.1-1.1,1.3c-0.4,0.2-0.7,0.2-1.1,0.2c-0.6,0-1.1,0-1.6-0.2c-0.6-0.2-1-0.6-1.2-1.1c-0.2-0.4-0.2-0.8-0.2-1.2
		c0-0.4,0-0.8,0.1-1.2c0.2-0.8,0.7-1.3,1.5-1.5c0.7-0.2,1.4-0.2,2.1,0c0.7,0.2,1.1,0.6,1.4,1.3c0.1,0.4,0.2,0.7,0.2,1.1
		c0,0.2,0,0.3,0,0.5c0,0.1,0,0.2-0.2,0.2C21.7,25.7,21.1,25.7,20.6,25.7z M19.8,24.6c0.2,0,0.5,0,0.7,0c0.3,0,0.3,0,0.2-0.2
		c0-0.3-0.2-0.5-0.4-0.6c-0.2-0.1-0.4-0.1-0.6-0.1c-0.5,0-0.8,0.3-0.9,0.8c0,0.1,0,0.1,0.1,0.1C19.2,24.6,19.5,24.6,19.8,24.6z"/>
	<path class="st0" d="M44.3,28c-0.4-0.3-0.7-0.6-1.1-0.9c0,0,0,0.1,0,0.1c-0.2,0.3-0.6,0.5-1,0.6c-0.6,0.1-1.1,0.1-1.7,0
		c-0.7-0.2-1-0.6-1.2-1.2c-0.1-0.3-0.1-0.6-0.1-0.9c0-1,0-2,0-3c0-0.1,0-0.1,0.1-0.1c0.5,0,0.9,0,1.4,0c0.1,0,0.1,0,0.1,0.1
		c0,1,0,2,0,3c0,0.1,0,0.2,0,0.4c0.1,0.3,0.2,0.5,0.6,0.5c0.2,0,0.4,0,0.6,0c0.4-0.1,0.6-0.3,0.6-0.7c0-0.1,0-0.3,0-0.4
		c0-0.9,0-1.9,0-2.8c0-0.1,0-0.1,0.1-0.1c0.5,0,0.9,0,1.4,0c0.1,0,0.1,0,0.1,0.1c0,1.7,0,3.5,0,5.2C44.3,27.9,44.3,28,44.3,28z"/>
	<path class="st0" d="M48.7,24.5c-0.2,0-0.4,0-0.7,0c-0.1,0-0.1,0-0.1-0.1c0-0.5-0.3-0.6-0.6-0.7c-0.2,0-0.5,0-0.7,0
		c-0.2,0.1-0.3,0.2-0.3,0.4c0,0.1,0,0.2,0.1,0.2c0.1,0.1,0.3,0.1,0.5,0.2c0.4,0.1,0.9,0.2,1.3,0.3c0.3,0.1,0.6,0.2,0.8,0.3
		c0.6,0.4,0.8,1.1,0.5,1.7c-0.1,0.3-0.4,0.6-0.7,0.8C48.4,27.9,48,28,47.5,28c-0.5,0-1,0-1.4-0.1c-0.5-0.1-1-0.4-1.2-0.9
		c-0.1-0.3-0.2-0.6-0.2-0.9c0-0.1,0-0.2,0-0.3c0-0.1,0-0.1,0.1-0.1c0.5,0.1,1,0.3,1.5,0.4c0,0,0.1,0.1,0.1,0.1c0,0.1,0,0.2,0,0.2
		c0,0.1,0.1,0.2,0.2,0.3c0.4,0.1,0.8,0.1,1.2-0.1c0.1,0,0.2-0.1,0.2-0.2c0.1-0.1,0-0.3-0.1-0.4c-0.2-0.1-0.4-0.2-0.6-0.2
		c-0.4-0.1-0.9-0.2-1.3-0.3c-0.3-0.1-0.5-0.2-0.8-0.3c-0.5-0.3-0.7-0.7-0.6-1.2c0-0.4,0.2-0.8,0.5-1c0.3-0.2,0.7-0.4,1.1-0.4
		c0.3,0,0.6-0.1,1-0.1c0.4,0,0.9,0,1.3,0.2c0.6,0.2,0.9,0.6,1,1.2c0,0.1,0,0.2,0,0.4c0,0.1,0,0.1-0.1,0.1
		C49.1,24.5,48.9,24.5,48.7,24.5z"/>
	<path class="st0" d="M33.7,25.2c0-0.4,0-0.9,0.2-1.3c0.3-0.7,0.8-1.1,1.5-1.3c0.7-0.2,1.3-0.1,2,0.1c0.6,0.2,1.1,0.6,1.3,1.3
		c0.2,0.5,0.2,1,0.2,1.5c0,0.3-0.1,0.7-0.2,1c-0.3,0.7-0.8,1.1-1.5,1.3c-0.6,0.2-1.3,0.2-1.9,0c-0.7-0.2-1.1-0.6-1.4-1.3
		C33.8,26,33.8,25.6,33.7,25.2z M37.4,25.2c0-0.2-0.1-0.5-0.1-0.7c-0.1-0.3-0.3-0.5-0.6-0.6c-0.2,0-0.3,0-0.5,0
		c-0.4,0-0.7,0.2-0.8,0.6c0,0.1-0.1,0.3-0.1,0.4c0,0.3,0,0.6,0.1,0.9c0.1,0.3,0.3,0.5,0.6,0.6c0.2,0.1,0.4,0.1,0.7,0
		c0.3-0.1,0.6-0.3,0.7-0.6C37.4,25.6,37.4,25.4,37.4,25.2z"/>
	<path class="st0" d="M24.2,17.6C24.2,17.5,24.2,17.5,24.2,17.6c-0.2-0.2-0.4-0.4-0.6-0.5c0,0,0-0.1,0-0.1c0,0,0,0,0,0
		c1.5-1.4,3-2.9,4.4-4.3c0.1-0.1,0.1-0.1,0.2,0c1.4,1.4,2.8,2.8,4.3,4.2c0.1,0.1,0.1,0.1,0,0.2c-0.1,0.1-0.3,0.3-0.4,0.4
		c-0.1,0.1-0.1,0.1-0.2,0c-1.2-1.2-2.4-2.4-3.7-3.6c-0.1-0.1-0.1-0.1-0.2,0C26.8,15,25.6,16.2,24.2,17.6
		C24.3,17.5,24.2,17.5,24.2,17.6z"/>
	<path class="st0" d="M33.5,14.5c-0.3,0-0.6,0-0.8,0c-0.4,0-0.7-0.2-0.7-0.7c0-0.2,0-0.4,0-0.6c0-0.3,0.3-0.6,0.6-0.6
		c0.6,0,1.3,0,1.9,0c0.3,0,0.6,0.2,0.6,0.5c0,0.2,0,0.5,0,0.7c0,0.4-0.3,0.6-0.7,0.6C34.1,14.5,33.8,14.5,33.5,14.5z M33.5,13.9
		c0.3,0,0.6,0,0.9,0c0.2,0,0.2-0.1,0.2-0.2c0-0.1,0-0.3,0-0.4c0-0.1-0.1-0.2-0.2-0.2c-0.6,0-1.2,0-1.7,0c-0.1,0-0.2,0.1-0.2,0.2
		c0,0.1,0,0.3,0,0.4c0,0.1,0.1,0.2,0.2,0.2C33,13.9,33.2,13.9,33.5,13.9z"/>
	<path class="st0" d="M23.6,13.5c0,0.4-0.2,0.6-0.5,0.8c-0.4,0.2-1,0-1.2-0.3c-0.3-0.4-0.2-0.9,0.2-1.1c0.4-0.3,0.9-0.2,1.3,0.1
		C23.5,13.1,23.6,13.3,23.6,13.5z"/>
</g>
</svg>
