<?xml version="1.0" encoding="utf-8"?>
<!-- Generator: Adobe Illustrator 25.0.1, SVG Export Plug-In . SVG Version: 6.00 Build 0)  -->
<svg version="1.1" id="Camada_1" xmlns="http://www.w3.org/2000/svg" xmlns:xlink="http://www.w3.org/1999/xlink" x="0px" y="0px"
	 viewBox="0 0 326 87.9" style="enable-background:new 0 0 326 87.9;" xml:space="preserve">
<style type="text/css">
	.st0{fill:#FFFFFF;}
</style>
<g>
	<path class="st0" d="M157.9,84.9c0-10.9,0-21.6,0-32.4c0-0.2,0-0.3,0-0.3s0,0,0.2,0c1.5,2.1,2.9,4.1,4.6,6.3
		c0.2-0.2,0.2-0.3,0.2-0.3c1.4-1.8,3.4-2.8,5.7-3.2c1.8-0.3,3.8-0.2,5.7,0.5c1.8,0.6,3.2,1.8,4.1,3.5c1.1,2,1.5,4.1,1.5,6.4
		c0,1.8,0,3.7-0.6,5.5c-0.6,2-1.5,3.7-3.2,4.7c-1.1,0.8-2.1,1.1-3.5,1.2c-1.8,0.3-3.8,0-5.5-0.6c-0.8-0.3-1.5-0.8-2-1.2
		c0,0-0.2-0.2-0.3-0.3c0,3.5,0,6.9,0,10.2C162.3,84.9,160.2,84.9,157.9,84.9z M173,65.9c0-0.8-0.2-1.7-0.2-2.4
		c-0.2-1.4-0.8-2.6-2.3-2.9c-0.6-0.2-1.4-0.2-2.1-0.2c-1.8,0-3.1,0.9-3.5,2.6c-0.3,1.2-0.3,2.6-0.3,4c0,0.8,0.2,1.7,0.5,2.4
		c0.3,0.9,0.9,1.7,2,2c1.1,0.3,2,0.3,3.1,0.2c1.2-0.3,2.1-1.1,2.4-2.3C172.8,68.1,172.8,67,173,65.9z"/>
	<path class="st0" d="M68.6,60.3c0.2-0.5,0.3-1.1,0.5-1.5c0.8-1.8,2.3-2.9,4.1-3.5c1.4-0.5,2.8-0.6,4.3-0.8c1.8-0.2,3.5,0,5.2,0.3
		c1.4,0.3,2.6,0.8,3.7,1.7c1.2,1.1,1.8,2.4,2,4c0,0.5,0,0.9,0.2,1.4c0,0.3-0.2,0.5-0.3,0.5c-1.8,0-3.7,0-5.5,0
		c-0.3,0-0.3-0.2-0.3-0.3c-0.2-1.8-1.2-2.6-2.9-2.8c-0.9,0-1.8,0-2.8,0.3c-0.5,0.2-0.8,0.5-0.9,0.9c-0.3,0.8-0.2,1.4,0.6,1.7
		s1.7,0.6,2.6,0.8c2,0.5,4,0.8,6,1.4c1.1,0.3,2,0.8,2.9,1.5c1.2,1.1,1.7,2.4,1.7,4c0,1.8-0.8,3.4-2.3,4.6c-1.2,0.9-2.4,1.5-4,1.8
		c-3.1,0.6-6,0.6-8.9-0.3c-2.6-0.9-4.3-2.8-4.9-5.4C69,69.7,69,68.8,69,67.8c0-0.2,0-0.3,0-0.5c0.5,0.2,0.9,0.3,1.5,0.5
		c1.5,0.5,3.2,0.9,4.7,1.4c0.3,0.2,0.5,0.3,0.5,0.6c0,0.2,0,0.3,0,0.6c0,0.6,0.3,1.1,1.1,1.2c1.5,0.3,3.2,0.5,4.7-0.2
		c0.6-0.2,0.9-0.6,1.1-1.1c0.2-0.6,0-1.1-0.5-1.4s-1.1-0.6-1.7-0.8c-1.7-0.5-3.5-0.8-5.2-1.1c-0.9-0.3-2-0.6-2.9-0.9
		c-1.8-0.8-3.2-1.8-3.5-3.8C68.6,61.7,68.6,61.1,68.6,60.3z"/>
	<path class="st0" d="M179.6,10.6c-7.5,0-15,0-22.5,0c-3.8,0-6.7,1.8-8.6,5c-0.6,1.2-1.1,2.4-1.1,3.8c0,4.4,0,9,0,13.5
		c0,0.6,0,0.6-0.6,0.6c-0.9,0-1.7,0-2.6,0c-0.3,0-0.5-0.2-0.5-0.5c0-4.7,0-9.5,0-14.2c0-2.4,1.1-4.7,2.6-6.7
		c2.4-2.9,5.5-4.4,9.3-4.9c0.5,0,0.9,0,1.4,0c8.9,0,17.9,0,26.8,0c0.6,0,0.6,0,0.6-0.6c0-1.4,0-2.8,0-4.3c0-1.8,1.7-3.1,3.1-3.1
		c4.6,0,9.2,0,13.9,0c1.4,0,3.1,1.2,3.1,3.1c0,1.5,0,3.1,0,4.6c0,0.3,0.2,0.5,0.5,0.6c2.4,0.5,4.6,1.5,6.3,3.2c2.1,2,3.5,4.3,4,7.2
		c0,0.5,0.2,0.9,0.2,1.2c0,4.6,0,9.2,0,13.6c0,0.6,0,0.6-0.6,0.6c-0.8,0-1.7,0-2.4,0c-0.6,0-0.6,0-0.6-0.6c0-4,0-7.9,0-11.9
		c0-0.9,0-1.8-0.2-2.8c-0.2-1.7-1.1-3.2-2.1-4.4c-1.8-2-4-2.9-6.6-3.2c-0.3,0-0.5,0-0.8,0C194.6,10.6,187.1,10.6,179.6,10.6z
		 M194.4,7.4c2.3,0,4.4,0,6.7,0c0.5,0,0.6,0,0.6-0.5c0-1.4,0-2.8,0-4c0-0.5,0-0.5-0.5-0.5c-4.4,0-8.9,0-13.3,0c-0.5,0-0.5,0-0.5,0.5
		c0,1.4,0,2.6,0,4c0,0.6,0,0.6,0.6,0.6C190.1,7.4,192.3,7.4,194.4,7.4z"/>
	<path class="st0" d="M97,57.2c1.2-1.4,2.8-2,4.4-2.3c2-0.3,4-0.2,5.8,0.8c1.8,0.8,2.9,2.3,3.4,4.3c0.3,1.1,0.5,2.1,0.5,3.2
		c0,4.3,0,8.7,0.2,13c0,0.5,0,0.5-0.5,0.5c-2,0-3.8,0-5.8,0c-0.5,0-0.5,0-0.5-0.5c0-4.1,0-8.3,0-12.2c0-0.5,0-0.9-0.2-1.4
		c-0.3-1.2-0.9-1.8-2.4-2c-0.8,0-1.5,0-2.3,0.2c-1.4,0.3-2.1,1.2-2.3,2.8c0,1.4,0,2.6-0.2,4c0,2.9,0,6,0,8.9c0,0.5,0,0.5-0.5,0.5
		c-1.8,0-3.7,0-5.7,0c-0.5,0-0.5,0-0.5-0.5c0-9.5,0-19.1,0-28.6c0-0.5,0-0.5,0.5-0.5c1.8,0,3.8,0,5.7,0c0.5,0,0.5,0,0.5,0.5
		C97.1,51,97.1,54,97,57.2C97,56.9,97,57.1,97,57.2z"/>
	<path class="st0" d="M187.5,57.2c0.6-0.5,1.1-0.9,1.7-1.2c0.8-0.6,1.8-0.8,2.8-0.9c1.8-0.3,3.7-0.2,5.4,0.5c1.8,0.6,3.1,2,3.7,3.8
		c0.5,1.2,0.6,2.4,0.6,3.7c0,4.3,0,8.7,0.2,13c0,0.6,0,0.6-0.6,0.6c-1.8,0-3.8,0-5.7,0c-0.5,0-0.6,0-0.6-0.5c0-4.1,0-8.1,0-12.2
		c0-0.5,0-0.8-0.2-1.2c-0.3-1.5-1.1-2.1-2.6-2.3c-0.8,0-1.5,0-2.1,0.2c-1.4,0.2-2.3,1.2-2.3,2.9c0,2,0,4-0.2,6c0,2.3,0,4.6,0,6.7
		c0,0.5,0,0.5-0.5,0.5c-1.8,0-3.8,0-5.7,0c-0.3,0-0.5-0.2-0.5-0.5c0-9.6,0-19.1,0-28.7c0-0.3,0.2-0.5,0.5-0.5c1.8,0,3.8,0,5.7,0
		c0.3,0,0.5,0.2,0.5,0.5c0,3.1,0,6.1,0,9.3C187.5,56.9,187.5,57.1,187.5,57.2z"/>
	<path class="st0" d="M126.4,67.9c-2.3,0-4.6,0-6.9,0c-0.5,0-0.6,0-0.5,0.6c0.2,1.4,0.6,2.6,1.8,3.4c0.8,0.5,1.5,0.5,2.4,0.5
		s1.8,0,2.6-0.5c0.5-0.3,0.9-0.8,1.1-1.4c0.2-0.3,0.3-0.3,0.5-0.3c2,0,4.1,0,6.1,0c0.5,0,0.5,0.2,0.5,0.6c-0.5,2.3-1.7,3.8-3.7,4.9
		c-1.7,0.9-3.4,1.2-5.2,1.4c-2,0.2-3.8,0-5.7-0.5c-3.4-0.9-5.7-3.1-6.6-6.4c-0.8-3.1-0.8-6.1,0.3-9.2c0.9-2.8,3.1-4.6,5.8-5.5
		c1.5-0.5,3.2-0.6,4.9-0.6c1.7,0,3.4,0.3,4.9,1.1c1.8,0.9,3.2,2.3,4.1,4.1c1.1,2.4,1.2,5,1.1,7.6c0,0.3-0.2,0.5-0.6,0.5
		C131,67.9,128.7,67.9,126.4,67.9z M123,63.5c1.2,0,2.3,0,3.5,0c0.3,0,0.5,0,0.5-0.3c0-1.2-0.6-2.8-2.1-3.2c-1.1-0.3-2.1-0.3-3.2,0
		c-0.9,0.3-1.5,0.8-2,1.5c-0.2,0.5-0.3,0.9-0.5,1.5s-0.2,0.6,0.5,0.6C120.7,63.5,121.8,63.5,123,63.5z"/>
	<path class="st0" d="M283.1,67.9c-2.3,0-4.6,0-6.9,0c-0.5,0-0.6,0-0.5,0.5c0.2,1.4,0.6,2.6,1.8,3.4c0.8,0.5,1.4,0.5,2.3,0.5
		c0.9,0,1.8,0,2.6-0.5c0.5-0.3,0.9-0.8,1.1-1.4c0.2-0.3,0.3-0.3,0.5-0.3c2,0,4.1,0,6.1,0c0.5,0,0.5,0.2,0.5,0.6
		c-0.3,2.3-1.7,3.8-3.7,4.9c-1.7,0.9-3.4,1.2-5.2,1.4c-2,0.2-3.8,0-5.7-0.5c-3.4-0.9-5.7-3.1-6.6-6.4c-0.8-3.1-0.8-6.1,0.3-9.2
		c0.9-2.8,3.1-4.6,5.8-5.5c1.5-0.5,3.2-0.6,4.9-0.6c1.7,0,3.4,0.3,4.9,1.1c1.8,0.9,3.2,2.3,4.1,4.1c1.1,2.4,1.2,5,1.1,7.6
		c0,0.3-0.2,0.5-0.6,0.5C287.6,67.9,285.4,67.9,283.1,67.9z M279.7,63.5c1.2,0,2.3,0,3.5,0c0.2,0,0.3,0,0.3-0.2
		c0-1.2-0.3-2.3-1.4-2.9c-0.9-0.6-2-0.8-3.1-0.6c-1.4,0.2-2.6,0.6-3.1,2c-0.2,0.5-0.2,0.8-0.3,1.2c-0.2,0.6-0.2,0.6,0.5,0.6
		C277.4,63.5,278.5,63.5,279.7,63.5z"/>
	<path class="st0" d="M149.2,67.9c-2.3,0-4.6,0-6.9,0c-0.5,0-0.6,0-0.5,0.5c0.2,0.6,0.2,1.2,0.5,1.7c0.5,1.2,1.5,2,2.9,2.1
		c1.1,0.2,2.1,0.2,3.2-0.3c0.6-0.3,1.1-0.8,1.2-1.4c0.2-0.3,0.3-0.5,0.6-0.5c2,0,4,0,6.1,0c0.5,0,0.5,0,0.5,0.5
		c-0.5,2.6-2,4.3-4.4,5.4c-1.4,0.6-2.9,0.9-4.6,0.9c-2.3,0.2-4.6,0-6.7-0.8c-2.3-0.8-4-2.3-4.9-4.6c-0.6-1.5-0.9-3.2-0.9-4.9
		c0-1.7,0-3.4,0.6-5c0.9-3.1,3.1-5.2,6.1-6.1c2.8-0.8,5.7-0.8,8.4,0s4.6,2.6,5.7,5.2c0.6,1.5,0.8,3.1,0.8,4.6c0,0.6,0,1.4,0,2
		s0,0.6-0.6,0.6C153.7,67.9,151.4,67.9,149.2,67.9z M145.8,63.5c0.9,0,2,0,2.9,0c1.1,0,1.1,0,0.9-1.1s-0.8-1.8-1.7-2.4
		c-0.8-0.5-1.7-0.5-2.6-0.5c-2,0.2-3.4,1.2-3.5,3.2c0,0.5,0,0.6,0.5,0.6C143.5,63.5,144.7,63.5,145.8,63.5z"/>
	<path class="st0" d="M246.1,77.4c-1.5-1.2-3.1-2.3-4.6-3.7c0,0.2,0,0.2-0.2,0.3c-1.1,1.2-2.4,2-4,2.4c-2.3,0.6-4.6,0.6-6.9,0
		c-2.8-0.6-4.1-2.4-4.7-5c-0.3-1.2-0.3-2.4-0.5-3.7c0-4,0-8.1,0-12.1c0-0.6,0-0.6,0.6-0.6c1.8,0,3.8,0,5.7,0c0.5,0,0.5,0,0.5,0.5
		c0,4,0,8.1,0,12.1c0,0.5,0,0.9,0.2,1.4c0.3,1.4,0.9,2,2.3,2.1c0.8,0.2,1.5,0,2.3,0c1.5-0.3,2.3-1.1,2.4-2.6c0-0.6,0.2-1.1,0.2-1.7
		c0-3.8,0-7.5,0-11.3c0-0.6,0-0.6,0.6-0.6c1.8,0,3.8,0,5.7,0c0.5,0,0.5,0,0.5,0.5c0,7,0,14.2,0,21.2
		C246.1,77.1,246.1,77.1,246.1,77.4z"/>
	<path class="st0" d="M264,63c-0.9,0-1.8,0-2.8,0c-0.3,0-0.5,0-0.5-0.3c0-1.8-1.2-2.6-2.6-2.8c-0.9-0.2-2-0.2-2.9,0.2
		c-0.9,0.3-1.4,0.8-1.4,1.7c0,0.3,0.2,0.8,0.5,0.9c0.6,0.3,1.2,0.6,1.8,0.8c1.8,0.5,3.7,0.8,5.5,1.2c1.2,0.3,2.3,0.8,3.4,1.4
		c2.6,1.5,3.1,4.4,2.1,6.7c-0.6,1.4-1.5,2.4-2.9,3.2c-1.7,0.9-3.5,1.4-5.4,1.5c-2,0.2-4,0-5.8-0.5c-2.1-0.6-4-1.7-4.9-3.8
		c-0.6-1.1-0.8-2.3-0.9-3.5c0-0.5,0-0.8,0-1.2c0-0.3,0.2-0.3,0.3-0.3c2,0.6,4.1,1.2,6.1,1.8c0.2,0,0.3,0.3,0.3,0.3
		c0,0.3,0,0.6,0.2,0.9c0,0.5,0.3,0.9,0.8,1.1c1.7,0.5,3.4,0.6,5-0.3c0.3-0.2,0.6-0.5,0.8-0.9c0.3-0.6,0.2-1.2-0.5-1.5
		c-0.8-0.5-1.5-0.8-2.4-0.9c-1.7-0.3-3.5-0.8-5.2-1.1c-1.1-0.3-2.1-0.6-3.1-1.2c-1.8-1.1-2.8-2.8-2.6-4.9c0.2-1.7,0.8-3.2,2.1-4.3
		c1.2-1.1,2.8-1.5,4.3-1.8c1.2-0.2,2.6-0.3,3.8-0.3c1.8,0,3.5,0.2,5.2,0.8c2.3,0.9,3.7,2.6,4,4.9c0.2,0.5,0.2,1.1,0.2,1.5
		s0,0.5-0.5,0.5C265.6,63,264.7,63,264,63z"/>
	<path class="st0" d="M202.8,65.9c0-1.8,0.2-3.5,0.8-5.2c1.1-2.9,3.2-4.6,6.3-5.4c2.8-0.6,5.5-0.6,8.1,0.3c2.6,0.9,4.4,2.6,5.4,5.2
		c0.8,2,0.9,4,0.8,6.1c-0.2,1.4-0.3,2.6-0.8,4c-1.1,2.8-3.1,4.4-6,5.2c-2.6,0.6-5.4,0.6-7.9-0.2c-2.8-0.8-4.6-2.6-5.7-5.4
		C203.1,69.2,203,67.6,202.8,65.9z M217.9,65.8c-0.2-0.9-0.2-1.8-0.5-2.8c-0.3-1.4-1.2-2.1-2.6-2.4c-0.6-0.2-1.2-0.2-2-0.2
		c-1.7,0-2.9,0.9-3.4,2.4c-0.2,0.6-0.3,1.2-0.3,1.7c-0.2,1.2-0.2,2.6,0.3,3.8c0.5,1.2,1.2,2.1,2.4,2.4c0.9,0.3,1.8,0.3,2.6,0
		c1.4-0.3,2.3-1.1,2.8-2.4C217.6,67.8,217.8,66.7,217.9,65.8z"/>
	<path class="st0" d="M164,34.8c-0.2-0.2-0.2-0.2-0.3-0.2c-0.6-0.6-1.4-1.4-2-2c-0.2-0.2-0.2-0.3,0-0.5l0.2-0.2
		c6-6,12.1-11.8,18-17.7c0.5-0.5,0.5-0.5,0.8,0c5.8,5.7,11.6,11.5,17.4,17.1c0.5,0.5,0.5,0.5,0,0.8c-0.6,0.6-1.2,1.1-1.7,1.7
		c-0.3,0.3-0.5,0.3-0.8,0c-5-4.9-9.9-9.8-15-14.7c-0.5-0.5-0.5-0.5-0.9,0c-5.2,5-10.4,10.2-15.6,15.3C164.1,34.6,164,34.6,164,34.8z
		"/>
	<path class="st0" d="M202,22.1c-1.2,0-2.3,0-3.5,0c-1.8,0-2.9-0.9-3.1-2.8c0-0.8,0-1.7,0-2.4c0.2-1.2,1.4-2.3,2.6-2.3
		c2.6,0,5.2,0,7.6,0c1.2,0,2.4,0.9,2.6,2.1c0.2,0.9,0.2,2,0,2.9c-0.2,1.4-1.4,2.3-2.8,2.3C204.5,22.1,203.3,22.1,202,22.1z
		 M202,19.9c1.2,0,2.3,0,3.5,0c0.6,0,0.9-0.2,0.9-0.9c0-0.5,0-1.1,0-1.5c0-0.6-0.3-0.9-0.9-0.9c-2.4,0-4.7,0-7.2,0
		c-0.6,0-0.9,0.3-0.9,0.9s0,1.1,0,1.7s0.3,0.8,0.9,0.8C199.8,19.9,200.8,19.9,202,19.9z"/>
	<path class="st0" d="M161.4,18.4c0,1.5-0.9,2.6-2.1,3.2c-1.7,0.8-3.8,0.2-4.9-1.4s-0.6-3.5,0.9-4.7c1.5-1.1,3.8-0.9,5.2,0.3
		C161.1,16.6,161.4,17.3,161.4,18.4z"/>
</g>
</svg>
