<?xml version="1.0" encoding="utf-8"?>
<!-- Generator: Adobe Illustrator 25.0.1, SVG Export Plug-In . SVG Version: 6.00 Build 0)  -->
<svg version="1.1" id="Camada_1" xmlns="http://www.w3.org/2000/svg" xmlns:xlink="http://www.w3.org/1999/xlink" x="0px" y="0px"
	 viewBox="0 0 92 70.1" style="enable-background:new 0 0 92 70.1;" xml:space="preserve">
<style type="text/css">
	.st0{fill:#FFFFFF;}
</style>
<g>
	<path class="st0" d="M45.1,13.7c-7.7,0-15.3,0-23,0c-3.9,0-6.8,1.8-8.8,5.1c-0.6,1.3-1.1,2.5-1.1,3.9c0,4.6,0,9.2,0,13.8
		c0,0.6,0,0.6-0.6,0.6c-1,0-1.7,0-2.6,0c-0.3,0-0.4-0.1-0.4-0.4c0-4.9,0-9.7,0-14.5c0-2.5,1.1-4.9,2.6-6.8c2.5-2.9,5.6-4.6,9.5-5
		c0.4,0,1,0,1.4,0c9,0,18.2,0,27.3,0c0.6,0,0.6,0,0.6-0.6c0-1.4,0-2.8,0-4.3c0-1.8,1.7-3.1,3.1-3.1c4.7,0,9.3,0,14.2,0
		c1.4,0,3.1,1.3,3.1,3.1c0,1.5,0,3.1,0,4.7c0,0.3,0.1,0.4,0.4,0.6c2.5,0.4,4.7,1.5,6.4,3.3c2.2,2.1,3.6,4.3,4,7.4
		c0,0.4,0.1,1,0.1,1.3c0,4.7,0,9.3,0,13.9c0,0.6,0,0.6-0.6,0.6c-0.8,0-1.7,0-2.5,0c-0.6,0-0.6,0-0.6-0.6c0-4,0-8.1,0-12.2
		c0-1,0-1.8-0.1-2.8c-0.1-1.7-1.1-3.3-2.2-4.6c-1.8-2.1-4-2.9-6.7-3.3c-0.3,0-0.4,0-0.8,0C60.4,13.7,52.8,13.7,45.1,13.7z
		 M60.3,10.4c2.4,0,4.6,0,6.8,0c0.4,0,0.6,0,0.6-0.4c0-1.4,0-2.8,0-4c0-0.4,0-0.4-0.4-0.4c-4.6,0-9,0-13.6,0c-0.4,0-0.4,0-0.4,0.4
		c0,1.4,0,2.6,0,4c0,0.6,0,0.6,0.6,0.6C55.9,10.4,58.1,10.4,60.3,10.4z"/>
	<path class="st0" d="M29.1,38.3c-0.1-0.1-0.1-0.1-0.3-0.1c-0.6-0.6-1.4-1.4-2.1-2.1c-0.1-0.1-0.1-0.3,0-0.4l0.1-0.1
		c6.1-6.1,12.4-12,18.4-18.1c0.4-0.4,0.4-0.4,0.8,0c6,5.8,11.8,11.7,17.8,17.5c0.4,0.4,0.4,0.4,0,0.8c-0.6,0.6-1.3,1.1-1.7,1.7
		c-0.3,0.3-0.4,0.3-0.8,0c-5.1-5-10.2-10-15.3-15c-0.4-0.4-0.4-0.4-1,0c-5.3,5.1-10.6,10.4-15.9,15.6C29.3,38.2,29.1,38.2,29.1,38.3
		z"/>
	<path class="st0" d="M68.1,25.4c-1.3,0-2.4,0-3.6,0c-1.8,0-2.9-1-3.1-2.8c0-0.8,0-1.7,0-2.5c0.1-1.3,1.4-2.4,2.6-2.4
		c2.6,0,5.3,0,7.8,0c1.3,0,2.5,1,2.6,2.2c0.1,1,0.1,2.1,0,2.9c-0.1,1.4-1.4,2.4-2.8,2.4C70.6,25.4,69.3,25.4,68.1,25.4z M68.1,23.2
		c1.3,0,2.4,0,3.6,0c0.6,0,1-0.1,1-1c0-0.4,0-1.1,0-1.5c0-0.6-0.3-1-1-1c-2.5,0-4.9,0-7.4,0c-0.6,0-1,0.3-1,1c0,0.7,0,1.1,0,1.7
		c0,0.6,0.3,0.8,1,0.8C65.7,23.2,66.8,23.2,68.1,23.2z"/>
	<path class="st0" d="M26.5,21.6c0,1.5-1,2.6-2.2,3.3c-1.7,0.8-3.9,0.1-5-1.4c-1.1-1.5-0.6-3.6,1-4.9c1.5-1.1,3.9-1,5.3,0.3
		C26.2,19.8,26.5,20.5,26.5,21.6z"/>
	<path class="st0" d="M46.5,68.3c0-11.1,0-22,0-33.1c0-0.1,0-0.3,0-0.3s0,0,0.1,0c1.5,2.2,2.9,4.2,4.7,6.4c0.1-0.1,0.1-0.3,0.1-0.3
		c1.4-1.8,3.5-2.8,5.8-3.3c1.8-0.3,3.9-0.1,5.8,0.4c1.8,0.6,3.3,1.8,4.2,3.6c1.1,2.1,1.5,4.2,1.5,6.5c0,1.8,0,3.8-0.6,5.6
		c-0.6,2.1-1.5,3.8-3.3,4.9c-1.1,0.8-2.2,1.1-3.6,1.3c-1.8,0.3-3.9,0-5.6-0.6c-0.8-0.3-1.5-0.8-2.1-1.3c0,0-0.1-0.1-0.3-0.3
		c0,3.6,0,7,0,10.4C51.1,68.3,48.8,68.3,46.5,68.3z M61.9,49c0-0.8-0.1-1.7-0.1-2.5c-0.1-1.4-0.8-2.6-2.4-2.9
		c-0.6-0.1-1.4-0.1-2.2-0.1c-1.8,0-3.1,1-3.6,2.6c-0.3,1.3-0.3,2.6-0.3,4c0,0.8,0.1,1.7,0.4,2.5c0.3,1,1,1.7,2.1,2.1
		c1.1,0.3,2.1,0.3,3.1,0.1c1.3-0.3,2.2-1.1,2.5-2.4C61.8,51.2,61.8,50.1,61.9,49z"/>
	<path class="st0" d="M23.5,44.3c0.1-0.4,0.3-1.1,0.4-1.5c0.8-1.8,2.4-2.9,4.2-3.6c1.4-0.4,2.8-0.6,4.3-0.8c1.8-0.1,3.6,0,5.3,0.3
		c1.4,0.3,2.6,0.8,3.8,1.7c1.3,1.1,1.8,2.5,2.1,4c0,0.4,0,1,0.1,1.4c0,0.3-0.1,0.4-0.3,0.4c-1.8,0-3.8,0-5.6,0
		c-0.3,0.1-0.3,0-0.3-0.1c-0.1-1.8-1.3-2.6-2.9-2.8c-1,0-1.8,0-2.8,0.3c-0.4,0.1-0.8,0.4-1,1c-0.3,0.8-0.1,1.4,0.6,1.7
		s1.7,0.6,2.6,0.8c2.1,0.4,4,0.8,6.1,1.4c1.1,0.3,2.1,0.8,2.9,1.5c1.3,1.1,1.7,2.5,1.7,4c0,1.8-0.8,3.5-2.4,4.7
		c-1.3,1-2.5,1.5-4,1.8c-3.1,0.6-6.1,0.6-9-0.3c-2.6-1-4.3-2.8-5-5.4c-0.6-1-0.6-1.8-0.6-2.8c0-0.1,0-0.3,0-0.4
		c0.4,0.1,1,0.3,1.5,0.4c1.5,0.4,3.3,1,4.9,1.4c0.3,0.1,0.4,0.3,0.4,0.6c0,0.1,0,0.3,0,0.6c0,0.6,0.3,1.1,1.1,1.3
		c1.5,0.3,3.3,0.4,4.9-0.1c0.6-0.1,1-0.6,1.1-1.1c0.1-0.6,0-1.1-0.4-1.4c-0.4-0.3-1.1-0.6-1.7-0.8c-1.7-0.4-3.6-0.8-5.3-1.1
		c-1-0.3-2.1-0.6-2.9-1c-1.8-0.8-3.3-1.8-3.6-3.9C23.5,45.7,23.5,45,23.5,44.3z"/>
</g>
</svg>
