<?xml version="1.0" encoding="utf-8"?>
<!-- Generator: Adobe Illustrator 25.0.1, SVG Export Plug-In . SVG Version: 6.00 Build 0)  -->
<svg version="1.1" id="Camada_1" xmlns="http://www.w3.org/2000/svg" xmlns:xlink="http://www.w3.org/1999/xlink" x="0px" y="0px"
	 viewBox="0 0 269 56" style="enable-background:new 0 0 269 56;" xml:space="preserve">
<style type="text/css">
	.st0{fill:#1B1464;}
</style>
<g>
	<path class="st0" d="M120.3,55.9c0-7,0-14.1,0-21.1c0-0.1,0-0.2,0-0.2c0,0,0,0,0.1,0c1,1.3,1.9,2.7,3,4.1c0.1-0.1,0.1-0.2,0.1-0.2
		c0.9-1.2,2.2-1.8,3.7-2.1c1.2-0.2,2.5-0.1,3.6,0.3c1.2,0.4,2.1,1.2,2.7,2.3c0.7,1.3,1,2.7,1,4.2c0,1.2,0,2.4-0.4,3.6
		c-0.4,1.3-1,2.4-2.1,3.1c-0.7,0.5-1.4,0.7-2.3,0.8c-1.2,0.2-2.4,0-3.6-0.4c-0.5-0.2-1-0.5-1.3-0.8c0,0-0.1-0.1-0.2-0.2
		c0,2.3,0,4.5,0,6.7C123.2,55.9,121.8,55.9,120.3,55.9z M130.2,43.5c0-0.5-0.1-1.1-0.1-1.6c-0.1-0.9-0.5-1.7-1.5-1.9
		c-0.4-0.1-0.9-0.1-1.4-0.1c-1.2,0-2,0.6-2.3,1.7c-0.2,0.8-0.2,1.7-0.2,2.6c0,0.5,0.1,1.1,0.3,1.6c0.2,0.6,0.6,1.1,1.3,1.3
		c0.7,0.2,1.3,0.2,2,0.1c0.8-0.2,1.4-0.7,1.6-1.5C130.1,44.9,130.1,44.2,130.2,43.5z"/>
	<path class="st0" d="M62,39.8c0.1-0.3,0.2-0.7,0.3-1c0.5-1.2,1.5-1.9,2.7-2.3c0.9-0.3,1.8-0.4,2.8-0.5c1.2-0.1,2.3,0,3.4,0.2
		c0.9,0.2,1.7,0.5,2.4,1.1c0.8,0.7,1.2,1.6,1.3,2.6c0,0.3,0,0.6,0.1,0.9c0,0.2-0.1,0.3-0.2,0.3c-1.2,0-2.4,0-3.6,0
		c-0.2,0-0.2-0.1-0.2-0.2c-0.1-1.2-0.8-1.7-1.9-1.8c-0.6,0-1.2,0-1.8,0.2c-0.3,0.1-0.5,0.3-0.6,0.6c-0.2,0.5-0.1,0.9,0.4,1.1
		c0.5,0.2,1.1,0.4,1.7,0.5c1.3,0.3,2.6,0.5,3.9,0.9c0.7,0.2,1.3,0.5,1.9,1c0.8,0.7,1.1,1.6,1.1,2.6c0,1.2-0.5,2.2-1.5,3
		c-0.8,0.6-1.6,1-2.6,1.2c-2,0.4-3.9,0.4-5.8-0.2c-1.7-0.6-2.8-1.8-3.2-3.5c-0.1-0.6-0.1-1.2-0.2-1.8c0-0.1,0-0.2,0-0.3
		c0.3,0.1,0.6,0.2,1,0.3c1,0.3,2.1,0.6,3.1,0.9c0.2,0.1,0.3,0.2,0.3,0.4c0,0.1,0,0.2,0,0.4c0,0.4,0.2,0.7,0.7,0.8
		c1,0.2,2.1,0.3,3.1-0.1c0.4-0.1,0.6-0.4,0.7-0.7c0.1-0.4,0-0.7-0.3-0.9c-0.3-0.2-0.7-0.4-1.1-0.5c-1.1-0.3-2.3-0.5-3.4-0.7
		c-0.6-0.2-1.3-0.4-1.9-0.6c-1.2-0.5-2.1-1.2-2.3-2.5C62,40.7,62,40.3,62,39.8z"/>
	<path class="st0" d="M134.5,7.4c-4.9,0-9.8,0-14.7,0c-2.5,0-4.4,1.2-5.6,3.3c-0.4,0.8-0.7,1.6-0.7,2.5c0,2.9,0,5.9,0,8.8
		c0,0.4,0,0.4-0.4,0.4c-0.6,0-1.1,0-1.7,0c-0.2,0-0.3-0.1-0.3-0.3c0-3.1,0-6.2,0-9.2c0-1.6,0.7-3.1,1.7-4.4c1.6-1.9,3.6-2.9,6.1-3.2
		c0.3,0,0.6,0,0.9,0c5.8,0,11.6,0,17.5,0c0.4,0,0.4,0,0.4-0.4c0-0.9,0-1.8,0-2.8c0-1.2,1.1-2,2-2c3,0,6,0,9.1,0c0.9,0,2,0.8,2,2
		c0,1,0,2,0,3c0,0.2,0.1,0.3,0.3,0.4c1.6,0.3,3,1,4.1,2.1c1.4,1.3,2.3,2.8,2.5,4.7c0,0.3,0.1,0.6,0.1,0.8c0,3,0,5.9,0,8.9
		c0,0.4,0,0.4-0.4,0.4c-0.5,0-1.1,0-1.6,0c-0.4,0-0.4,0-0.4-0.4c0-2.6,0-5.2,0-7.8c0-0.6,0-1.2-0.1-1.8c-0.1-1.1-0.7-2.1-1.4-2.9
		c-1.2-1.3-2.6-1.9-4.3-2.1c-0.2,0-0.3,0-0.5,0C144.3,7.4,139.4,7.4,134.5,7.4z M144.2,5.2c1.4,0,2.9,0,4.3,0c0.3,0,0.4,0,0.4-0.3
		c0-0.9,0-1.8,0-2.6c0-0.3,0-0.3-0.3-0.3c-2.9,0-5.8,0-8.7,0c-0.3,0-0.3,0-0.3,0.3c0,0.9,0,1.7,0,2.6c0,0.4,0,0.4,0.4,0.4
		C141.4,5.2,142.8,5.2,144.2,5.2z"/>
	<path class="st0" d="M80.5,37.8c0.8-0.9,1.8-1.3,2.9-1.5c1.3-0.2,2.6-0.1,3.8,0.5c1.2,0.5,1.9,1.5,2.2,2.8c0.2,0.7,0.3,1.4,0.3,2.1
		c0,2.8,0,5.7,0.1,8.5c0,0.3,0,0.3-0.3,0.3c-1.3,0-2.5,0-3.8,0c-0.3,0-0.3,0-0.3-0.3c0-2.7,0-5.3,0-8c0-0.3,0-0.6-0.1-0.9
		c-0.2-0.8-0.6-1.2-1.6-1.3c-0.5,0-1,0-1.5,0.1c-0.9,0.2-1.4,0.8-1.5,1.8c0,0.9,0,1.7-0.1,2.6c0,1.9,0,3.8,0,5.8
		c0,0.3,0,0.3-0.3,0.3c-1.2,0-2.4,0-3.7,0c-0.3,0-0.3,0-0.3-0.3c0-6.2,0-12.5,0-18.7c0-0.3,0-0.3,0.3-0.3c1.2,0,2.5,0,3.7,0
		c0.3,0,0.3,0,0.3,0.3c0,2,0,4,0,6.1C80.5,37.6,80.5,37.7,80.5,37.8z"/>
	<path class="st0" d="M139.7,37.8c0.4-0.3,0.7-0.6,1.1-0.8c0.5-0.4,1.2-0.5,1.8-0.6c1.2-0.2,2.4-0.1,3.5,0.3c1.2,0.4,2,1.3,2.4,2.5
		c0.3,0.8,0.4,1.6,0.4,2.4c0,2.8,0,5.7,0.1,8.5c0,0.4,0,0.4-0.4,0.4c-1.2,0-2.5,0-3.7,0c-0.3,0-0.4,0-0.4-0.3c0-2.6,0-5.3,0-7.9
		c0-0.3,0-0.5-0.1-0.8c-0.2-1-0.7-1.4-1.7-1.5c-0.5,0-1,0-1.4,0.1c-0.9,0.1-1.5,0.8-1.5,1.9c0,1.3,0,2.6-0.1,3.9c0,1.5,0,2.9,0,4.4
		c0,0.3,0,0.3-0.3,0.3c-1.2,0-2.5,0-3.7,0c-0.2,0-0.3-0.1-0.3-0.3c0-6.3,0-12.5,0-18.8c0-0.2,0.1-0.3,0.3-0.3c1.2,0,2.5,0,3.7,0
		c0.2,0,0.3,0.1,0.3,0.3c0,2,0,4,0,6.1C139.7,37.6,139.7,37.7,139.7,37.8z"/>
	<path class="st0" d="M99.8,44.8c-1.5,0-3,0-4.5,0c-0.3,0-0.4,0-0.3,0.3c0.1,0.9,0.4,1.7,1.2,2.2c0.5,0.3,0.9,0.3,1.5,0.3
		c0.6,0,1.2,0,1.7-0.3c0.3-0.2,0.6-0.5,0.7-0.9c0.1-0.2,0.2-0.2,0.3-0.2c1.3,0,2.7,0,4,0c0.3,0,0.3,0.1,0.3,0.4
		c-0.3,1.5-1.1,2.5-2.4,3.2c-1.1,0.6-2.2,0.8-3.4,0.9c-1.3,0.1-2.5,0-3.7-0.3c-2.2-0.6-3.7-2-4.2-4.2c-0.5-2-0.5-4,0.2-6
		c0.6-1.8,1.9-3,3.8-3.5c1-0.3,2.1-0.4,3.2-0.4c1.1,0,2.2,0.2,3.2,0.7c1.2,0.6,2.1,1.5,2.6,2.7c0.7,1.6,0.8,3.3,0.7,5
		c0,0.2-0.1,0.3-0.4,0.3C102.8,44.8,101.3,44.8,99.8,44.8z M97.5,41.9c0.8,0,1.5,0,2.3,0c0.2,0,0.3,0,0.3-0.2c0-0.8-0.4-1.8-1.4-2.1
		c-0.7-0.2-1.4-0.2-2.1,0c-0.6,0.2-1,0.5-1.3,1c-0.1,0.3-0.2,0.6-0.3,1c-0.1,0.4-0.1,0.4,0.3,0.4C96,41.9,96.8,41.9,97.5,41.9z"/>
	<path class="st0" d="M202.1,44.8c-1.5,0-3,0-4.5,0c-0.3,0-0.4,0-0.3,0.3c0.1,0.9,0.4,1.7,1.2,2.2c0.5,0.3,0.9,0.3,1.5,0.3
		c0.6,0,1.2,0,1.7-0.3c0.3-0.2,0.6-0.5,0.7-0.9c0.1-0.2,0.2-0.2,0.3-0.2c1.3,0,2.7,0,4,0c0.3,0,0.3,0.1,0.3,0.4
		c-0.2,1.5-1.1,2.5-2.4,3.2c-1.1,0.6-2.2,0.8-3.4,0.9c-1.3,0.1-2.5,0-3.7-0.3c-2.2-0.6-3.7-2-4.3-4.2c-0.5-2-0.5-4,0.2-6
		c0.6-1.8,1.9-3,3.8-3.5c1-0.3,2.1-0.4,3.2-0.4c1.1,0,2.2,0.2,3.2,0.7c1.2,0.6,2.1,1.5,2.6,2.7c0.7,1.6,0.8,3.3,0.7,5
		c0,0.2-0.1,0.3-0.4,0.3C205.1,44.8,203.6,44.8,202.1,44.8z M199.9,41.9c0.8,0,1.5,0,2.3,0c0.1,0,0.2,0,0.2-0.1
		c0-0.8-0.2-1.5-0.9-1.9c-0.6-0.4-1.3-0.5-2-0.4c-0.9,0.1-1.7,0.4-2,1.3c-0.1,0.3-0.1,0.5-0.2,0.8c-0.1,0.4-0.1,0.4,0.3,0.4
		C198.4,41.9,199.1,41.9,199.9,41.9z"/>
	<path class="st0" d="M114.6,44.8c-1.5,0-3,0-4.5,0c-0.3,0-0.4,0-0.3,0.3c0.1,0.4,0.1,0.8,0.3,1.1c0.3,0.8,1,1.3,1.9,1.4
		c0.7,0.1,1.4,0.1,2.1-0.2c0.4-0.2,0.7-0.5,0.8-0.9c0.1-0.2,0.2-0.3,0.4-0.3c1.3,0,2.6,0,4,0c0.3,0,0.3,0,0.3,0.3
		c-0.3,1.7-1.3,2.8-2.9,3.5c-0.9,0.4-1.9,0.6-3,0.6c-1.5,0.1-3,0-4.4-0.5c-1.5-0.5-2.6-1.5-3.2-3c-0.4-1-0.6-2.1-0.6-3.2
		c0-1.1,0-2.2,0.4-3.3c0.6-2,1.9-3.4,4-4c1.8-0.5,3.7-0.5,5.5,0c1.8,0.5,3,1.7,3.7,3.4c0.4,1,0.5,2,0.5,3c0,0.4,0,0.9,0,1.3
		c0,0.4,0,0.4-0.4,0.4C117.6,44.8,116.1,44.8,114.6,44.8z M112.4,41.9c0.6,0,1.3,0,1.9,0c0.7,0,0.7,0,0.6-0.7
		c-0.1-0.7-0.5-1.2-1.1-1.6c-0.5-0.3-1.1-0.3-1.6-0.3c-1.3,0.1-2.2,0.8-2.3,2.1c0,0.3,0,0.4,0.3,0.4C111,41.9,111.7,41.9,112.4,41.9
		z"/>
	<path class="st0" d="M177.9,51c-1-0.8-2-1.5-3-2.4c0,0.1,0,0.1-0.1,0.2c-0.7,0.8-1.6,1.3-2.6,1.6c-1.5,0.4-3,0.4-4.5,0
		c-1.7-0.4-2.7-1.6-3.1-3.3c-0.2-0.8-0.2-1.6-0.3-2.4c0-2.6,0-5.2,0-7.9c0-0.4,0-0.4,0.4-0.4c1.2,0,2.5,0,3.7,0c0.3,0,0.3,0,0.3,0.3
		c0,2.6,0,5.3,0,7.9c0,0.3,0,0.6,0.1,0.9c0.2,0.9,0.6,1.3,1.5,1.4c0.5,0.1,1,0,1.5,0c1-0.2,1.5-0.7,1.6-1.7c0-0.4,0.1-0.7,0.1-1.1
		c0-2.5,0-4.9,0-7.4c0-0.4,0-0.4,0.4-0.4c1.2,0,2.5,0,3.7,0c0.3,0,0.3,0,0.3,0.3c0,4.6,0,9.2,0,13.9C177.9,50.8,177.9,50.9,177.9,51
		z"/>
	<path class="st0" d="M189.6,41.6c-0.6,0-1.2,0-1.8,0c-0.2,0-0.3,0-0.3-0.2c0-1.2-0.8-1.6-1.7-1.8c-0.6-0.1-1.3-0.1-1.9,0.1
		c-0.6,0.2-0.9,0.5-0.9,1.1c0,0.2,0.1,0.5,0.3,0.6c0.4,0.2,0.8,0.4,1.2,0.5c1.2,0.3,2.4,0.5,3.6,0.8c0.8,0.2,1.5,0.5,2.2,0.9
		c1.7,1,2,2.9,1.4,4.4c-0.4,0.9-1,1.6-1.9,2.1c-1.1,0.6-2.3,0.9-3.5,1c-1.3,0.1-2.6,0-3.8-0.3c-1.4-0.4-2.5-1.1-3.2-2.5
		c-0.4-0.7-0.5-1.5-0.6-2.3c0-0.3,0-0.5,0-0.8c0-0.2,0.1-0.2,0.2-0.2c1.3,0.4,2.7,0.8,4,1.2c0.1,0,0.2,0.2,0.2,0.2
		c0,0.2,0,0.4,0.1,0.6c0,0.3,0.2,0.6,0.5,0.7c1.1,0.3,2.2,0.4,3.3-0.2c0.2-0.1,0.4-0.3,0.5-0.6c0.2-0.4,0.1-0.8-0.3-1
		c-0.5-0.3-1-0.5-1.6-0.6c-1.1-0.2-2.3-0.5-3.4-0.7c-0.7-0.2-1.4-0.4-2-0.8c-1.2-0.7-1.8-1.8-1.7-3.2c0.1-1.1,0.5-2.1,1.4-2.8
		c0.8-0.7,1.8-1,2.8-1.2c0.8-0.1,1.7-0.2,2.5-0.2c1.2,0,2.3,0.1,3.4,0.5c1.5,0.6,2.4,1.7,2.6,3.2c0,0.3,0.1,0.7,0.1,1
		c0,0.3,0,0.3-0.3,0.3C190.7,41.6,190.2,41.6,189.6,41.6z"/>
	<path class="st0" d="M149.7,43.5c0-1.2,0.1-2.3,0.5-3.4c0.7-1.9,2.1-3,4.1-3.5c1.8-0.4,3.6-0.4,5.3,0.2c1.7,0.6,2.9,1.7,3.4,3.4
		c0.5,1.3,0.6,2.6,0.5,4c-0.1,0.9-0.2,1.7-0.5,2.6c-0.7,1.8-2,2.9-3.9,3.4c-1.7,0.4-3.5,0.4-5.2-0.1c-1.8-0.5-3-1.7-3.7-3.5
		C149.9,45.6,149.7,44.6,149.7,43.5z M159.6,43.5c-0.1-0.6-0.1-1.2-0.3-1.8c-0.2-0.9-0.8-1.4-1.7-1.6c-0.4-0.1-0.8-0.1-1.3-0.1
		c-1.1,0-1.9,0.6-2.2,1.6c-0.1,0.4-0.2,0.8-0.2,1.1c-0.1,0.8-0.1,1.7,0.2,2.5c0.3,0.8,0.8,1.4,1.6,1.6c0.6,0.2,1.2,0.2,1.7,0
		c0.9-0.2,1.5-0.7,1.8-1.6C159.4,44.7,159.5,44.1,159.6,43.5z"/>
	<path class="st0" d="M124.3,23.2c-0.1-0.1-0.1-0.1-0.2-0.1c-0.4-0.4-0.9-0.9-1.3-1.3c-0.1-0.1-0.1-0.2,0-0.3c0,0,0.1-0.1,0.1-0.1
		c3.9-3.9,7.9-7.7,11.8-11.6c0.3-0.3,0.3-0.3,0.5,0c3.8,3.7,7.6,7.5,11.4,11.2c0.3,0.3,0.3,0.3,0,0.5c-0.4,0.4-0.8,0.7-1.1,1.1
		c-0.2,0.2-0.3,0.2-0.5,0c-3.3-3.2-6.5-6.4-9.8-9.6c-0.3-0.3-0.3-0.3-0.6,0c-3.4,3.3-6.8,6.7-10.2,10
		C124.4,23,124.3,23.1,124.3,23.2z"/>
	<path class="st0" d="M149.2,14.9c-0.8,0-1.5,0-2.3,0c-1.2,0-1.9-0.6-2-1.8c0-0.5,0-1.1,0-1.6c0.1-0.8,0.9-1.5,1.7-1.5
		c1.7,0,3.3,0,5,0c0.8,0,1.6,0.6,1.7,1.4c0.1,0.6,0.1,1.3,0,1.9c-0.1,0.9-0.9,1.5-1.8,1.5C150.8,14.9,150,14.9,149.2,14.9z
		 M149.1,13.5c0.8,0,1.5,0,2.3,0c0.4,0,0.6-0.1,0.6-0.6c0-0.3,0-0.7,0-1c0-0.4-0.2-0.6-0.6-0.6c-1.5,0-3.1,0-4.6,0
		c-0.4,0-0.6,0.2-0.6,0.5c0,0.3,0,0.7,0,1c0,0.4,0.2,0.5,0.6,0.5C147.6,13.5,148.4,13.5,149.1,13.5z"/>
	<path class="st0" d="M122.6,12.4c0,1-0.6,1.6-1.4,2.1c-1.1,0.5-2.5,0.1-3.2-0.8c-0.7-1-0.4-2.3,0.6-3c1-0.7,2.5-0.6,3.4,0.2
		C122.4,11.2,122.6,11.8,122.6,12.4z"/>
</g>
</svg>
