<?xml version="1.0" encoding="utf-8"?>
<!-- Generator: Adobe Illustrator 25.0.1, SVG Export Plug-In . SVG Version: 6.00 Build 0)  -->
<svg version="1.1" id="Camada_1" xmlns="http://www.w3.org/2000/svg" xmlns:xlink="http://www.w3.org/1999/xlink" x="0px" y="0px"
	 viewBox="0 0 120 74" style="enable-background:new 0 0 120 74;" xml:space="preserve">
<style type="text/css">
	.st0{fill:#FFFFFF;}
</style>
<g>
	<path class="st0" d="M48.5,59.2c0-5.6,0-11.2,0-16.9c0-0.1,0-0.1,0-0.2c0,0,0,0,0.1,0c0.8,1.1,1.5,2.2,2.4,3.3
		c0-0.1,0.1-0.1,0.1-0.2c0.7-1,1.8-1.5,3-1.7c1-0.2,2-0.1,2.9,0.2s1.7,1,2.2,1.8c0.6,1,0.8,2.1,0.8,3.3c0,1,0,1.9-0.3,2.9
		s-0.8,1.9-1.7,2.5c-0.5,0.4-1.2,0.6-1.8,0.7c-1,0.1-2,0-2.9-0.3c-0.4-0.2-0.8-0.4-1.1-0.7c0,0-0.1-0.1-0.2-0.1c0,1.8,0,3.6,0,5.3
		C50.8,59.2,49.6,59.2,48.5,59.2z M56.3,49.3c0-0.4,0-0.9-0.1-1.3c-0.1-0.7-0.4-1.3-1.2-1.5c-0.4-0.1-0.7-0.1-1.1-0.1
		c-0.9,0-1.6,0.5-1.8,1.4c-0.2,0.7-0.2,1.4-0.1,2.1c0,0.4,0.1,0.8,0.2,1.2c0.1,0.5,0.5,0.9,1,1c0.5,0.2,1.1,0.2,1.6,0.1
		c0.7-0.1,1.1-0.5,1.3-1.2C56.3,50.4,56.3,49.9,56.3,49.3z"/>
	<path class="st0" d="M1.9,46.4C2,46.1,2,45.8,2.2,45.6c0.4-0.9,1.2-1.5,2.1-1.8c0.7-0.3,1.4-0.3,2.2-0.4c0.9-0.1,1.8,0,2.7,0.2
		c0.7,0.1,1.4,0.4,1.9,0.8c0.6,0.6,0.9,1.3,1,2.1c0,0.2,0,0.5,0,0.7c0,0.1,0,0.2-0.2,0.2c-0.9,0-1.9,0-2.8,0C9,47.4,9,47.3,9,47.2
		c-0.1-1-0.7-1.4-1.5-1.4c-0.5,0-1,0-1.5,0.1c-0.2,0.1-0.4,0.2-0.5,0.4c-0.1,0.4-0.1,0.7,0.3,0.9s0.9,0.3,1.4,0.4
		c1,0.2,2.1,0.4,3.1,0.7c0.5,0.2,1,0.4,1.5,0.8c0.6,0.6,0.9,1.3,0.9,2.1c0,1-0.4,1.8-1.2,2.4c-0.6,0.5-1.3,0.8-2.1,1
		C7.8,55,6.3,55,4.7,54.5c-1.4-0.4-2.2-1.4-2.5-2.8c-0.1-0.5-0.1-1-0.2-1.5c0-0.1,0-0.1,0-0.2c0.3,0.1,0.5,0.1,0.8,0.2
		c0.8,0.2,1.6,0.5,2.5,0.7C5.5,51,5.6,51,5.5,51.2c0,0.1,0,0.2,0,0.3c0,0.3,0.2,0.6,0.5,0.7c0.8,0.2,1.6,0.2,2.4-0.1
		C8.7,52,8.9,51.8,9,51.5s0-0.5-0.2-0.7c-0.3-0.2-0.6-0.3-0.9-0.4C7,50.2,6.1,50,5.2,49.8c-0.5-0.1-1-0.3-1.5-0.5
		c-0.9-0.4-1.6-1-1.9-2C1.9,47.1,1.9,46.7,1.9,46.4z"/>
	<path class="st0" d="M59.8,20.5c-3.9,0-7.8,0-11.7,0c-2,0-3.5,0.9-4.5,2.6c-0.4,0.6-0.5,1.3-0.5,2c0,2.3,0,4.7,0,7
		c0,0.3,0,0.3-0.3,0.3c-0.5,0-0.9,0-1.4,0c-0.2,0-0.2-0.1-0.2-0.2c0-2.5,0-4.9,0-7.4c0-1.3,0.5-2.5,1.4-3.5c1.3-1.5,2.9-2.3,4.8-2.6
		c0.2,0,0.5,0,0.7,0c4.6,0,9.3,0,13.9,0c0.3,0,0.3,0,0.3-0.3c0-0.7,0-1.5,0-2.2c0-0.9,0.8-1.6,1.6-1.6c2.4,0,4.8,0,7.2,0
		c0.7,0,1.6,0.6,1.6,1.6c0,0.8,0,1.6,0,2.4c0,0.2,0.1,0.3,0.3,0.3c1.3,0.3,2.4,0.8,3.3,1.7c1.1,1,1.8,2.3,2,3.8
		c0,0.2,0.1,0.4,0.1,0.7c0,2.4,0,4.7,0,7.1c0,0.3,0,0.3-0.3,0.3c-0.4,0-0.9,0-1.3,0c-0.3,0-0.3,0-0.3-0.3c0-2.1,0-4.1,0-6.2
		c0-0.5,0-1,0-1.5c-0.1-0.9-0.5-1.7-1.1-2.3c-0.9-1-2.1-1.5-3.4-1.7c-0.1,0-0.3,0-0.4,0C67.6,20.5,63.7,20.5,59.8,20.5z M67.5,18.7
		c1.2,0,2.3,0,3.5,0c0.3,0,0.3,0,0.3-0.3c0-0.7,0-1.4,0-2.1c0-0.2,0-0.3-0.3-0.3c-2.3,0-4.6,0-6.9,0c-0.2,0-0.3,0-0.3,0.3
		c0,0.7,0,1.4,0,2.1c0,0.3,0,0.3,0.3,0.3C65.3,18.7,66.4,18.7,67.5,18.7z"/>
	<path class="st0" d="M16.7,44.7c0.6-0.7,1.4-1,2.3-1.2c1-0.1,2,0,3,0.4s1.5,1.2,1.8,2.2c0.1,0.5,0.2,1.1,0.2,1.7c0,2.3,0,4.5,0,6.8
		c0,0.2,0,0.3-0.3,0.3c-1,0-2,0-3,0c-0.3,0-0.3,0-0.3-0.3c0-2.1,0-4.3,0-6.4c0-0.3,0-0.5-0.1-0.8c-0.1-0.6-0.5-0.9-1.3-1
		c-0.4,0-0.8,0-1.2,0c-0.7,0.1-1.2,0.7-1.2,1.5c0,0.7,0,1.4,0,2.1c0,1.5,0,3.1,0,4.6c0,0.3,0,0.3-0.3,0.3c-1,0-1.9,0-2.9,0
		c-0.3,0-0.3,0-0.3-0.3c0-5,0-9.9,0-14.9c0-0.3,0-0.3,0.3-0.3c1,0,2,0,2.9,0c0.2,0,0.3,0,0.3,0.3c0,1.6,0,3.2,0,4.8
		C16.7,44.6,16.7,44.7,16.7,44.7z"/>
	<path class="st0" d="M63.9,44.7c0.3-0.2,0.6-0.5,0.9-0.7c0.4-0.3,0.9-0.4,1.4-0.5c0.9-0.1,1.9,0,2.8,0.3c1,0.3,1.6,1,1.9,2
		c0.2,0.6,0.3,1.3,0.3,1.9c0,2.3,0,4.5,0,6.8c0,0.3,0,0.3-0.3,0.3c-1,0-2,0-3,0c-0.3,0-0.3,0-0.3-0.3c0-2.1,0-4.2,0-6.3
		c0-0.2,0-0.4-0.1-0.6c-0.1-0.8-0.5-1.2-1.4-1.2c-0.4,0-0.8,0-1.1,0c-0.8,0.1-1.2,0.7-1.2,1.5c0,1,0,2.1,0,3.1c0,1.2,0,2.4,0,3.5
		c0,0.3,0,0.3-0.3,0.3c-1,0-2,0-2.9,0c-0.2,0-0.3-0.1-0.3-0.2c0-5,0-10,0-15c0-0.2,0.1-0.2,0.2-0.2c1,0,2,0,3,0
		c0.2,0,0.2,0.1,0.2,0.3c0,1.6,0,3.2,0,4.8C63.9,44.6,63.9,44.7,63.9,44.7z"/>
	<path class="st0" d="M32,50.3c-1.2,0-2.4,0-3.6,0c-0.3,0-0.3,0-0.3,0.3c0.1,0.7,0.3,1.3,1,1.7c0.4,0.2,0.8,0.3,1.2,0.3
		c0.5,0,0.9,0,1.4-0.3c0.3-0.2,0.5-0.4,0.6-0.7c0-0.1,0.1-0.2,0.3-0.2c1.1,0,2.1,0,3.2,0c0.2,0,0.3,0,0.2,0.3
		c-0.2,1.2-0.9,2-1.9,2.6c-0.9,0.5-1.8,0.6-2.7,0.7c-1,0.1-2,0-2.9-0.2c-1.8-0.5-2.9-1.6-3.4-3.3c-0.4-1.6-0.4-3.2,0.2-4.8
		c0.5-1.5,1.6-2.4,3-2.8c0.8-0.2,1.7-0.3,2.5-0.3c0.9,0,1.7,0.2,2.5,0.5c1,0.4,1.7,1.2,2.1,2.1c0.6,1.3,0.7,2.6,0.6,4
		c0,0.2-0.1,0.2-0.3,0.2C34.4,50.3,33.2,50.3,32,50.3z M30.2,48c0.6,0,1.2,0,1.8,0c0.1,0,0.2,0,0.2-0.2c0-0.7-0.3-1.4-1.1-1.7
		c-0.6-0.2-1.1-0.2-1.7,0c-0.5,0.1-0.8,0.4-1,0.8c-0.1,0.2-0.2,0.5-0.2,0.8c-0.1,0.3,0,0.3,0.3,0.3C29.1,48,29.7,48,30.2,48z"/>
	<path class="st0" d="M113.7,50.3c-1.2,0-2.4,0-3.6,0c-0.3,0-0.3,0-0.3,0.3c0.1,0.7,0.3,1.3,1,1.7c0.4,0.2,0.8,0.3,1.2,0.3
		c0.5,0,0.9,0,1.4-0.3c0.3-0.2,0.5-0.4,0.6-0.7c0-0.1,0.1-0.2,0.3-0.2c1.1,0,2.1,0,3.2,0c0.2,0,0.3,0,0.2,0.3
		c-0.2,1.2-0.9,2-1.9,2.6c-0.9,0.5-1.8,0.6-2.7,0.7c-1,0.1-2,0-2.9-0.2c-1.8-0.5-2.9-1.6-3.4-3.3c-0.4-1.6-0.4-3.2,0.2-4.8
		c0.5-1.5,1.6-2.4,3-2.8c0.8-0.2,1.7-0.3,2.5-0.3c0.9,0,1.7,0.1,2.5,0.5c1,0.4,1.7,1.2,2.1,2.1c0.6,1.3,0.7,2.6,0.6,4
		c0,0.2-0.1,0.2-0.3,0.2C116.1,50.3,114.9,50.3,113.7,50.3z M111.9,48c0.6,0,1.2,0,1.8,0c0.1,0,0.2,0,0.2-0.1c0-0.6-0.2-1.2-0.7-1.5
		s-1-0.4-1.6-0.3c-0.7,0.1-1.3,0.3-1.6,1c-0.1,0.2-0.1,0.4-0.2,0.6c-0.1,0.3,0,0.3,0.3,0.3C110.8,48,111.3,48,111.9,48z"/>
	<path class="st0" d="M43.9,50.3c-1.2,0-2.4,0-3.6,0c-0.3,0-0.3,0-0.2,0.3s0.1,0.6,0.2,0.9c0.3,0.7,0.8,1,1.5,1.1
		c0.6,0.1,1.1,0.1,1.7-0.2c0.3-0.2,0.6-0.4,0.7-0.7c0.1-0.2,0.1-0.2,0.3-0.2c1.1,0,2.1,0,3.2,0c0.2,0,0.3,0,0.2,0.3
		c-0.2,1.4-1.1,2.2-2.3,2.8C44.8,54.8,44,55,43.2,55c-1.2,0.1-2.4,0-3.5-0.4c-1.2-0.4-2.1-1.2-2.6-2.4c-0.4-0.8-0.5-1.7-0.5-2.6
		c0-0.9,0-1.8,0.3-2.6c0.5-1.6,1.6-2.7,3.2-3.2c1.5-0.4,2.9-0.4,4.4,0c1.4,0.4,2.4,1.3,2.9,2.7c0.3,0.8,0.4,1.6,0.4,2.4
		c0,0.4,0,0.7,0,1.1c0,0.3,0,0.3-0.3,0.3C46.3,50.3,45.1,50.3,43.9,50.3z M42.2,48c0.5,0,1,0,1.5,0s0.5,0,0.4-0.5
		c-0.1-0.6-0.4-1-0.9-1.3C42.8,46,42.3,46,41.9,46c-1,0-1.7,0.7-1.8,1.7c0,0.3,0,0.3,0.3,0.3C41,48,41.6,48,42.2,48z"/>
	<path class="st0" d="M94.4,55.3c-0.8-0.6-1.6-1.2-2.4-1.9c0,0.1,0,0.1-0.1,0.2c-0.5,0.7-1.2,1.1-2.1,1.3c-1.2,0.3-2.4,0.3-3.6,0
		c-1.4-0.3-2.2-1.3-2.5-2.6c-0.1-0.6-0.2-1.3-0.2-1.9c0-2.1,0-4.2,0-6.3c0-0.3,0-0.3,0.3-0.3c1,0,2,0,2.9,0c0.2,0,0.3,0,0.3,0.3
		c0,2.1,0,4.2,0,6.3c0,0.3,0,0.5,0.1,0.8c0.1,0.7,0.5,1.1,1.2,1.1c0.4,0,0.8,0,1.2,0c0.8-0.1,1.2-0.6,1.3-1.4c0-0.3,0-0.6,0-0.9
		c0-2,0-3.9,0-5.9c0-0.3,0-0.3,0.3-0.3c1,0,2,0,3,0c0.2,0,0.3,0,0.3,0.3c0,3.7,0,7.4,0,11.1C94.4,55.1,94.4,55.1,94.4,55.3z"/>
	<path class="st0" d="M103.7,47.8c-0.5,0-0.9,0-1.4,0c-0.1,0-0.2,0-0.2-0.2c0-1-0.6-1.3-1.4-1.4c-0.5-0.1-1-0.1-1.5,0.1
		c-0.5,0.1-0.7,0.4-0.7,0.9c0,0.2,0.1,0.4,0.3,0.5c0.3,0.1,0.6,0.3,1,0.4c1,0.2,1.9,0.4,2.9,0.6c0.6,0.1,1.2,0.4,1.8,0.7
		c1.3,0.8,1.6,2.3,1.1,3.5c-0.3,0.7-0.8,1.3-1.5,1.7c-0.9,0.5-1.8,0.7-2.8,0.8s-2,0-3-0.2c-1.1-0.3-2-0.9-2.6-2
		c-0.3-0.6-0.4-1.2-0.5-1.8c0-0.2,0-0.4,0-0.6c0-0.1,0-0.2,0.2-0.1c1.1,0.3,2.1,0.6,3.2,0.9c0.1,0,0.1,0.1,0.1,0.2
		c0,0.2,0,0.3,0.1,0.5c0,0.3,0.2,0.5,0.4,0.5c0.9,0.2,1.8,0.3,2.7-0.1c0.2-0.1,0.3-0.3,0.4-0.4c0.2-0.3,0.1-0.6-0.2-0.8
		c-0.4-0.3-0.8-0.4-1.3-0.5c-0.9-0.2-1.8-0.4-2.7-0.6c-0.6-0.1-1.1-0.3-1.6-0.6c-1-0.6-1.4-1.4-1.3-2.5c0.1-0.9,0.4-1.7,1.1-2.2
		s1.4-0.8,2.3-0.9c0.7-0.1,1.4-0.2,2-0.2c0.9,0,1.8,0.1,2.7,0.4c1.2,0.4,1.9,1.3,2.1,2.6c0,0.3,0.1,0.5,0.1,0.8c0,0.2,0,0.3-0.3,0.3
		C104.6,47.8,104.2,47.8,103.7,47.8z"/>
	<path class="st0" d="M71.9,49.3c0-1,0.1-1.8,0.4-2.7c0.6-1.5,1.7-2.4,3.2-2.8c1.4-0.3,2.9-0.3,4.2,0.1c1.4,0.4,2.3,1.4,2.8,2.7
		c0.4,1,0.5,2.1,0.4,3.2c-0.1,0.7-0.2,1.4-0.4,2.1c-0.6,1.4-1.6,2.3-3.1,2.7c-1.4,0.4-2.8,0.4-4.1,0c-1.5-0.4-2.4-1.4-2.9-2.8
		C72,51,71.9,50.1,71.9,49.3z M79.8,49.2c-0.1-0.5-0.1-1-0.2-1.4c-0.2-0.7-0.6-1.2-1.4-1.3c-0.3-0.1-0.7-0.1-1-0.1
		c-0.9,0-1.5,0.5-1.8,1.3c-0.1,0.3-0.1,0.6-0.2,0.9c-0.1,0.7,0,1.4,0.2,2s0.6,1.1,1.3,1.3c0.5,0.1,0.9,0.1,1.4,0
		c0.7-0.1,1.2-0.6,1.4-1.3C79.6,50.2,79.7,49.7,79.8,49.2z"/>
	<path class="st0" d="M51.6,33.1C51.5,33.1,51.5,33,51.6,33.1c-0.4-0.4-0.8-0.8-1.1-1.1c-0.1-0.1-0.1-0.2,0-0.2l0.1-0.1
		c3.1-3.1,6.3-6.2,9.4-9.3c0.2-0.2,0.2-0.2,0.4,0c3,3,6.1,6,9.1,8.9c0.2,0.2,0.2,0.2,0,0.4c-0.3,0.3-0.6,0.6-0.9,0.9
		c-0.1,0.1-0.2,0.1-0.4,0c-2.6-2.6-5.2-5.1-7.8-7.7c-0.2-0.2-0.2-0.2-0.4,0c-2.7,2.7-5.4,5.3-8.1,8C51.7,32.9,51.7,33,51.6,33.1z"/>
	<path class="st0" d="M71.5,26.4c-0.6,0-1.2,0-1.8,0c-1,0-1.5-0.5-1.6-1.4c0-0.4,0-0.9,0-1.3c0.1-0.7,0.7-1.2,1.4-1.2
		c1.3,0,2.7,0,4,0c0.7,0,1.3,0.5,1.4,1.1c0.1,0.5,0.1,1,0,1.6c-0.1,0.8-0.7,1.2-1.5,1.2C72.8,26.4,72.1,26.4,71.5,26.4z M71.5,25.3
		c0.6,0,1.2,0,1.8,0c0.4,0,0.5-0.1,0.5-0.5c0-0.3,0-0.5,0-0.8s-0.1-0.4-0.4-0.4c-1.2,0-2.5,0-3.7,0c-0.3,0-0.4,0.1-0.4,0.4
		s0,0.6,0,0.8c0,0.3,0.1,0.4,0.5,0.4C70.2,25.3,70.8,25.3,71.5,25.3z"/>
	<path class="st0" d="M50.3,24.5c0,0.8-0.4,1.3-1.2,1.6c-0.9,0.4-2,0.1-2.6-0.7C46,24.6,46.2,23.6,47,23s2-0.5,2.7,0.2
		C50.1,23.5,50.3,24,50.3,24.5z"/>
</g>
</svg>
