<?xml version="1.0" encoding="utf-8"?>
<!-- Generator: Adobe Illustrator 25.0.1, SVG Export Plug-In . SVG Version: 6.00 Build 0)  -->
<svg version="1.1" id="Camada_1" xmlns="http://www.w3.org/2000/svg" xmlns:xlink="http://www.w3.org/1999/xlink" x="0px" y="0px"
	 viewBox="0 0 269 56" style="enable-background:new 0 0 269 56;" xml:space="preserve">
<style type="text/css">
	.st0{fill:#1B1464;}
</style>
<g>
	<path class="st0" d="M117.7,53.4c0-6.6,0-13.2,0-19.8c0-0.1,0-0.1,0-0.2c0,0,0,0,0.1,0c0.9,1.3,1.8,2.5,2.8,3.9
		c0.1-0.1,0.1-0.2,0.1-0.2c0.9-1.2,2.1-1.7,3.5-1.9c1.2-0.2,2.3-0.1,3.4,0.3c1.1,0.4,2,1.1,2.5,2.2c0.7,1.2,0.9,2.5,1,3.9
		c0,1.1,0,2.3-0.4,3.4c-0.4,1.2-0.9,2.2-2,2.9c-0.6,0.4-1.4,0.7-2.1,0.8c-1.2,0.1-2.3,0-3.4-0.4c-0.5-0.2-0.9-0.4-1.2-0.8
		c0,0-0.1-0.1-0.2-0.2c0,2.1,0,4.2,0,6.3C120.4,53.4,119.1,53.4,117.7,53.4z M126.9,41.8c0-0.5-0.1-1-0.1-1.5
		c-0.1-0.8-0.5-1.6-1.4-1.8c-0.4-0.1-0.9-0.1-1.3-0.1c-1.1,0-1.9,0.6-2.1,1.6c-0.2,0.8-0.2,1.6-0.2,2.4c0,0.5,0.1,1,0.3,1.5
		c0.2,0.6,0.6,1,1.2,1.2c0.6,0.2,1.3,0.2,1.9,0.1c0.8-0.2,1.3-0.6,1.5-1.4C126.9,43.1,126.9,42.5,126.9,41.8z"/>
	<path class="st0" d="M63,38.4c0.1-0.3,0.2-0.7,0.3-1c0.5-1.1,1.4-1.7,2.5-2.1c0.8-0.3,1.7-0.4,2.6-0.5c1.1-0.1,2.1,0,3.2,0.2
		c0.8,0.2,1.6,0.4,2.2,1c0.8,0.7,1.1,1.5,1.2,2.5c0,0.3,0,0.6,0.1,0.8c0,0.2-0.1,0.2-0.2,0.2c-1.1,0-2.2,0-3.3,0
		c-0.2,0-0.2-0.1-0.2-0.2c-0.1-1.1-0.8-1.6-1.8-1.7c-0.6,0-1.2,0-1.7,0.2c-0.3,0.1-0.5,0.3-0.6,0.5c-0.2,0.5-0.1,0.8,0.4,1
		c0.5,0.2,1,0.4,1.6,0.5c1.2,0.3,2.5,0.4,3.6,0.8c0.6,0.2,1.2,0.5,1.7,1c0.7,0.7,1.1,1.5,1.1,2.5c0,1.2-0.5,2.1-1.4,2.8
		c-0.7,0.6-1.5,0.9-2.4,1.1c-1.8,0.4-3.7,0.4-5.5-0.2c-1.6-0.5-2.6-1.6-3-3.3c-0.1-0.6-0.1-1.1-0.2-1.7c0-0.1,0-0.2,0-0.3
		c0.3,0.1,0.6,0.2,0.9,0.3c1,0.3,1.9,0.6,2.9,0.8c0.2,0.1,0.3,0.2,0.3,0.4c0,0.1,0,0.2,0,0.3c0,0.4,0.2,0.7,0.6,0.8
		c1,0.2,1.9,0.3,2.9-0.1c0.3-0.1,0.6-0.3,0.7-0.7c0.1-0.3,0-0.6-0.3-0.8c-0.3-0.2-0.7-0.4-1-0.5C69.1,43,68,42.8,67,42.5
		c-0.6-0.1-1.2-0.3-1.8-0.6c-1.1-0.4-1.9-1.2-2.2-2.4C63,39.2,63,38.8,63,38.4z"/>
	<path class="st0" d="M131,7.9c-4.6,0-9.2,0-13.7,0c-2.3,0-4.1,1.1-5.3,3.1c-0.4,0.7-0.6,1.5-0.6,2.3c0,2.8,0,5.5,0,8.3
		c0,0.4,0,0.4-0.4,0.4c-0.5,0-1.1,0-1.6,0c-0.2,0-0.3-0.1-0.3-0.3c0-2.9,0-5.8,0-8.7c0-1.5,0.6-2.9,1.6-4.1c1.5-1.8,3.4-2.8,5.7-3
		c0.3,0,0.6,0,0.8,0c5.5,0,10.9,0,16.4,0c0.4,0,0.4,0,0.4-0.4c0-0.9,0-1.7,0-2.6c0-1.1,1-1.9,1.9-1.9c2.8,0,5.7,0,8.5,0
		c0.9,0,1.9,0.8,1.9,1.8c0,0.9,0,1.9,0,2.8c0,0.2,0.1,0.3,0.3,0.4c1.5,0.3,2.8,1,3.9,2c1.3,1.2,2.1,2.7,2.4,4.4
		c0,0.3,0.1,0.5,0.1,0.8c0,2.8,0,5.6,0,8.4c0,0.3,0,0.3-0.3,0.3c-0.5,0-1,0-1.5,0c-0.3,0-0.4,0-0.4-0.3c0-2.4,0-4.8,0-7.3
		c0-0.6,0-1.1-0.1-1.7c-0.1-1.1-0.6-2-1.3-2.8c-1.1-1.2-2.4-1.8-4-2c-0.2,0-0.3,0-0.5,0C140.1,7.9,135.6,7.9,131,7.9z M140.1,5.9
		c1.4,0,2.7,0,4.1,0c0.3,0,0.3,0,0.3-0.3c0-0.8,0-1.6,0-2.5c0-0.3,0-0.3-0.3-0.3c-2.7,0-5.4,0-8.2,0c-0.3,0-0.3,0-0.3,0.3
		c0,0.8,0,1.6,0,2.5c0,0.3,0,0.4,0.4,0.4C137.5,5.9,138.8,5.9,140.1,5.9z"/>
	<path class="st0" d="M80.4,36.4c0.7-0.8,1.7-1.2,2.7-1.4c1.2-0.2,2.4-0.1,3.5,0.4c1.2,0.5,1.8,1.4,2.1,2.6c0.2,0.6,0.3,1.3,0.3,2
		c0,2.7,0,5.3,0.1,8c0,0.3,0,0.3-0.3,0.3c-1.2,0-2.3,0-3.5,0c-0.3,0-0.3,0-0.3-0.3c0-2.5,0-5,0-7.5c0-0.3,0-0.6-0.1-0.9
		c-0.2-0.8-0.6-1.1-1.5-1.2c-0.5,0-1,0-1.4,0.1c-0.9,0.1-1.4,0.8-1.4,1.7c0,0.8,0,1.6,0,2.4c0,1.8,0,3.6,0,5.4c0,0.3,0,0.3-0.3,0.3
		c-1.1,0-2.3,0-3.4,0c-0.3,0-0.3,0-0.3-0.3c0-5.8,0-11.7,0-17.5c0-0.3,0-0.3,0.3-0.3c1.2,0,2.3,0,3.5,0c0.3,0,0.3,0,0.3,0.3
		c0,1.9,0,3.8,0,5.7C80.4,36.3,80.4,36.4,80.4,36.4z"/>
	<path class="st0" d="M135.9,36.4c0.3-0.3,0.7-0.5,1-0.8c0.5-0.3,1.1-0.5,1.7-0.6c1.1-0.1,2.2-0.1,3.3,0.3c1.1,0.4,1.9,1.2,2.3,2.3
		c0.3,0.7,0.4,1.5,0.4,2.3c0,2.7,0,5.3,0,8c0,0.3,0,0.3-0.4,0.3c-1.2,0-2.3,0-3.5,0c-0.3,0-0.3,0-0.3-0.3c0-2.5,0-5,0-7.5
		c0-0.2,0-0.5-0.1-0.7c-0.2-0.9-0.6-1.4-1.6-1.4c-0.4,0-0.9,0-1.3,0.1c-0.9,0.1-1.4,0.8-1.4,1.7c0,1.2,0,2.5,0,3.7
		c0,1.4,0,2.8,0,4.2c0,0.3,0,0.3-0.3,0.3c-1.2,0-2.3,0-3.5,0c-0.2,0-0.3-0.1-0.3-0.3c0-5.9,0-11.7,0-17.6c0-0.2,0.1-0.3,0.3-0.3
		c1.2,0,2.3,0,3.5,0c0.2,0,0.3,0.1,0.3,0.3c0,1.9,0,3.8,0,5.7C135.9,36.3,135.9,36.4,135.9,36.4z"/>
	<path class="st0" d="M98.4,43c-1.4,0-2.8,0-4.2,0c-0.3,0-0.3,0-0.3,0.3c0.1,0.8,0.3,1.6,1.1,2c0.4,0.2,0.9,0.3,1.4,0.3
		c0.6,0,1.1,0,1.6-0.3c0.3-0.2,0.6-0.5,0.7-0.8c0.1-0.2,0.1-0.2,0.3-0.2c1.2,0,2.5,0,3.7,0c0.3,0,0.3,0.1,0.3,0.3
		c-0.2,1.4-1,2.4-2.3,3c-1,0.5-2.1,0.7-3.2,0.8c-1.2,0.1-2.3,0-3.5-0.3c-2.1-0.5-3.5-1.8-4-3.9c-0.5-1.9-0.5-3.8,0.2-5.6
		c0.6-1.7,1.8-2.8,3.6-3.3c1-0.3,2-0.4,3-0.4c1,0,2,0.2,3,0.6c1.1,0.5,2,1.4,2.5,2.5c0.7,1.5,0.8,3.1,0.7,4.6c0,0.2-0.1,0.3-0.3,0.3
		C101.2,43,99.8,43,98.4,43z M96.3,40.3c0.7,0,1.4,0,2.1,0c0.1,0,0.3,0,0.3-0.2c0-0.8-0.4-1.7-1.3-2c-0.7-0.2-1.3-0.2-2,0
		c-0.5,0.1-1,0.4-1.2,1c-0.1,0.3-0.2,0.6-0.2,0.9c-0.1,0.3,0,0.3,0.3,0.3C94.9,40.3,95.6,40.3,96.3,40.3z"/>
	<path class="st0" d="M194.4,43c-1.4,0-2.8,0-4.2,0c-0.3,0-0.3,0-0.3,0.3c0.1,0.8,0.3,1.6,1.1,2c0.4,0.2,0.9,0.3,1.4,0.3
		c0.6,0,1.1,0,1.6-0.3c0.3-0.2,0.6-0.5,0.7-0.8c0.1-0.2,0.1-0.2,0.3-0.2c1.2,0,2.5,0,3.7,0c0.3,0,0.3,0.1,0.3,0.3
		c-0.2,1.4-1,2.4-2.2,3c-1,0.5-2.1,0.7-3.2,0.8c-1.2,0.1-2.3,0-3.5-0.3c-2.1-0.5-3.5-1.8-4-3.9c-0.5-1.9-0.5-3.8,0.2-5.6
		c0.6-1.7,1.8-2.8,3.6-3.3c1-0.3,2-0.4,3-0.4c1,0,2,0.2,3,0.6c1.1,0.5,2,1.4,2.5,2.5c0.7,1.5,0.8,3.1,0.7,4.6c0,0.2-0.1,0.3-0.3,0.3
		C197.2,43,195.8,43,194.4,43z M192.3,40.3c0.7,0,1.4,0,2.2,0c0.1,0,0.2,0,0.2-0.1c0-0.7-0.2-1.4-0.9-1.8c-0.6-0.4-1.2-0.4-1.8-0.4
		c-0.9,0.1-1.6,0.4-1.9,1.2c-0.1,0.2-0.1,0.5-0.2,0.8c-0.1,0.3,0,0.3,0.3,0.3C190.9,40.3,191.6,40.3,192.3,40.3z"/>
	<path class="st0" d="M112.4,43c-1.4,0-2.8,0-4.2,0c-0.3,0-0.3,0-0.3,0.3c0.1,0.4,0.1,0.7,0.2,1c0.3,0.8,0.9,1.2,1.8,1.3
		c0.7,0.1,1.3,0.1,1.9-0.2c0.4-0.2,0.7-0.5,0.8-0.9c0.1-0.2,0.2-0.2,0.4-0.2c1.2,0,2.5,0,3.7,0c0.3,0,0.3,0,0.3,0.3
		c-0.3,1.6-1.2,2.6-2.7,3.3c-0.9,0.4-1.8,0.5-2.8,0.6c-1.4,0.1-2.8,0-4.1-0.5c-1.4-0.5-2.4-1.4-3-2.8c-0.4-1-0.6-2-0.6-3
		c0-1.1,0-2.1,0.3-3.1c0.6-1.9,1.8-3.2,3.8-3.7c1.7-0.5,3.4-0.5,5.2,0c1.7,0.5,2.8,1.6,3.4,3.2c0.3,0.9,0.5,1.9,0.5,2.9
		c0,0.4,0,0.8,0,1.3c0,0.4,0,0.4-0.4,0.4C115.2,43,113.8,43,112.4,43z M110.3,40.3c0.6,0,1.2,0,1.8,0c0.6,0,0.6,0,0.5-0.6
		c-0.1-0.6-0.4-1.2-1.1-1.5c-0.5-0.2-1-0.3-1.5-0.2c-1.2,0.1-2,0.8-2.1,2c0,0.3,0,0.3,0.3,0.3C108.9,40.3,109.6,40.3,110.3,40.3z"/>
	<path class="st0" d="M171.7,48.8c-1-0.7-1.9-1.4-2.8-2.2c0,0.1,0,0.1-0.1,0.2c-0.6,0.8-1.5,1.3-2.4,1.5c-1.4,0.4-2.8,0.4-4.2,0
		c-1.6-0.4-2.6-1.5-2.9-3.1c-0.2-0.7-0.2-1.5-0.2-2.3c0-2.5,0-4.9,0-7.4c0-0.4,0-0.4,0.4-0.4c1.2,0,2.3,0,3.5,0c0.3,0,0.3,0,0.3,0.3
		c0,2.5,0,5,0,7.4c0,0.3,0,0.6,0.1,0.9c0.2,0.8,0.6,1.3,1.4,1.4c0.5,0.1,0.9,0,1.4,0c0.9-0.1,1.4-0.7,1.5-1.6c0-0.3,0-0.7,0-1
		c0-2.3,0-4.6,0-6.9c0-0.3,0-0.3,0.4-0.3c1.2,0,2.3,0,3.5,0c0.3,0,0.3,0,0.3,0.3c0,4.3,0,8.7,0,13C171.7,48.6,171.7,48.7,171.7,48.8
		z"/>
	<path class="st0" d="M182.7,40c-0.6,0-1.1,0-1.7,0c-0.2,0-0.3,0-0.3-0.2c0-1.2-0.8-1.5-1.6-1.6c-0.6-0.1-1.2-0.1-1.8,0.1
		c-0.6,0.2-0.8,0.5-0.8,1c0,0.2,0.1,0.4,0.3,0.5c0.4,0.2,0.7,0.4,1.1,0.5c1.1,0.3,2.3,0.5,3.4,0.7c0.7,0.2,1.4,0.4,2.1,0.8
		c1.6,0.9,1.9,2.7,1.3,4.1c-0.3,0.9-1,1.5-1.8,1.9c-1,0.6-2.1,0.8-3.3,0.9c-1.2,0.1-2.4,0-3.6-0.3c-1.3-0.3-2.4-1.1-3-2.3
		c-0.3-0.7-0.5-1.4-0.6-2.2c0-0.2,0-0.5,0-0.7c0-0.2,0.1-0.2,0.2-0.2c1.2,0.4,2.5,0.7,3.7,1.1c0.1,0,0.1,0.1,0.2,0.2
		c0,0.2,0,0.4,0.1,0.6c0,0.3,0.2,0.5,0.5,0.6c1.1,0.3,2.1,0.3,3.1-0.1c0.2-0.1,0.4-0.3,0.5-0.5c0.2-0.3,0.1-0.7-0.3-0.9
		c-0.5-0.3-1-0.4-1.5-0.5c-1.1-0.2-2.1-0.4-3.2-0.7c-0.7-0.2-1.3-0.4-1.9-0.7c-1.1-0.7-1.7-1.7-1.6-3c0.1-1,0.5-1.9,1.4-2.6
		c0.8-0.6,1.7-1,2.7-1.1c0.8-0.1,1.6-0.2,2.4-0.2c1.1,0,2.2,0.1,3.2,0.5c1.4,0.5,2.2,1.6,2.4,3c0,0.3,0.1,0.6,0.1,0.9
		c0,0.3,0,0.3-0.3,0.3C183.7,40,183.2,40,182.7,40z"/>
	<path class="st0" d="M145.3,41.8c0-1.1,0.1-2.2,0.5-3.2c0.7-1.8,2-2.8,3.8-3.3c1.7-0.4,3.4-0.4,5,0.2c1.6,0.5,2.7,1.6,3.2,3.2
		c0.4,1.2,0.5,2.5,0.5,3.8c-0.1,0.8-0.2,1.6-0.5,2.4c-0.7,1.7-1.9,2.7-3.7,3.2c-1.6,0.4-3.3,0.4-4.9-0.1c-1.7-0.5-2.8-1.6-3.5-3.2
		C145.4,43.8,145.3,42.8,145.3,41.8z M154.5,41.7c-0.1-0.6-0.1-1.1-0.3-1.7c-0.2-0.8-0.7-1.4-1.6-1.5c-0.4-0.1-0.8-0.1-1.2-0.1
		c-1,0-1.8,0.6-2.1,1.5c-0.1,0.3-0.2,0.7-0.2,1.1c-0.1,0.8-0.1,1.6,0.2,2.4c0.2,0.7,0.7,1.3,1.5,1.5c0.5,0.1,1.1,0.2,1.6,0
		c0.9-0.2,1.4-0.7,1.7-1.5C154.3,42.9,154.4,42.3,154.5,41.7z"/>
	<path class="st0" d="M121.4,22.7c-0.1,0-0.1-0.1-0.2-0.1c-0.4-0.4-0.8-0.8-1.2-1.2c-0.1-0.1-0.1-0.2,0-0.3c0,0,0.1-0.1,0.1-0.1
		c3.7-3.6,7.4-7.3,11.1-10.9c0.2-0.2,0.2-0.2,0.5,0c3.6,3.5,7.1,7,10.7,10.5c0.2,0.2,0.2,0.2,0,0.5c-0.4,0.4-0.7,0.7-1.1,1.1
		c-0.2,0.2-0.3,0.2-0.4,0c-3.1-3-6.1-6-9.2-9c-0.3-0.3-0.3-0.3-0.5,0c-3.2,3.1-6.4,6.2-9.5,9.4C121.6,22.6,121.5,22.6,121.4,22.7z"
		/>
	<path class="st0" d="M144.8,14.9c-0.7,0-1.4,0-2.1,0c-1.1,0-1.8-0.6-1.9-1.7c0-0.5,0-1,0-1.5c0.1-0.8,0.8-1.4,1.6-1.4
		c1.6,0,3.1,0,4.7,0c0.8,0,1.5,0.6,1.6,1.3c0.1,0.6,0.1,1.2,0,1.8c-0.1,0.9-0.8,1.4-1.7,1.4C146.3,14.9,145.5,14.9,144.8,14.9z
		 M144.7,13.6c0.7,0,1.4,0,2.2,0c0.4,0,0.6-0.1,0.6-0.6c0-0.3,0-0.6,0-0.9c0-0.4-0.1-0.5-0.5-0.5c-1.5,0-2.9,0-4.4,0
		c-0.4,0-0.5,0.1-0.5,0.5c0,0.3,0,0.7,0,1c0,0.4,0.2,0.5,0.5,0.5C143.3,13.6,144,13.6,144.7,13.6z"/>
	<path class="st0" d="M119.9,12.6c0,0.9-0.5,1.5-1.4,1.9c-1,0.5-2.4,0.1-3-0.8c-0.6-0.9-0.4-2.2,0.5-2.9c1-0.7,2.3-0.6,3.2,0.2
		C119.6,11.5,119.9,12,119.9,12.6z"/>
</g>
</svg>
